G04 Layer_Color=16711935*
%FSLAX44Y44*%
%MOMM*%
G71*
G01*
G75*
%ADD46R,1.2000X0.7000*%
%ADD56R,0.7000X0.6500*%
%ADD57R,0.6000X0.7500*%
%ADD64R,0.6500X0.7000*%
%ADD65R,1.6000X1.6000*%
%ADD67R,2.4000X2.0000*%
%ADD68R,0.5000X1.5000*%
%ADD69R,1.8750X2.0000*%
%ADD70R,1.2000X1.1000*%
D46*
X512750Y1397000D02*
D03*
X533750D02*
D03*
Y1378000D02*
D03*
D56*
X552000Y1366500D02*
D03*
X562000D02*
D03*
D57*
X493000Y1371500D02*
D03*
Y1362000D02*
D03*
D64*
X562000Y1388000D02*
D03*
Y1378000D02*
D03*
X483000Y1361750D02*
D03*
Y1371750D02*
D03*
X552000Y1378000D02*
D03*
Y1388000D02*
D03*
D65*
X418400Y1496200D02*
D03*
Y1318400D02*
D03*
Y1343800D02*
D03*
Y1369200D02*
D03*
Y1394600D02*
D03*
Y1420000D02*
D03*
Y1445400D02*
D03*
Y1470800D02*
D03*
Y1521600D02*
D03*
X621600Y1470800D02*
D03*
Y1445400D02*
D03*
Y1420000D02*
D03*
Y1394600D02*
D03*
Y1369200D02*
D03*
Y1343800D02*
D03*
Y1318400D02*
D03*
Y1496200D02*
D03*
Y1521600D02*
D03*
D67*
X482500Y1320000D02*
D03*
X557500D02*
D03*
D68*
X507000Y1348500D02*
D03*
X513500D02*
D03*
X520000D02*
D03*
X526500D02*
D03*
X533000D02*
D03*
D69*
X508375Y1320000D02*
D03*
X531625D02*
D03*
D70*
X512750Y1380000D02*
D03*
M02*
