G04 Layer_Physical_Order=2*
G04 Layer_Color=36540*
%FSLAX44Y44*%
%MOMM*%
G71*
G01*
G75*
%ADD34R,1.5000X1.5000*%
%ADD35C,0.6000*%
G36*
X615000Y1531100D02*
X612100D01*
Y1512100D01*
X615000D01*
Y1505700D01*
X612100D01*
Y1486700D01*
X615000D01*
Y1484300D01*
X608100D01*
Y1457300D01*
Y1431900D01*
Y1406500D01*
Y1381100D01*
Y1355700D01*
X615000D01*
Y1327900D01*
X612100D01*
Y1308900D01*
X615000D01*
Y1305000D01*
X425000D01*
Y1308900D01*
X427900D01*
Y1327900D01*
X425000D01*
Y1334300D01*
X427900D01*
Y1353300D01*
X425000D01*
Y1359700D01*
X427900D01*
Y1378700D01*
X425000D01*
Y1385100D01*
X427900D01*
Y1395818D01*
X429115Y1396187D01*
X430145Y1394645D01*
X431799Y1393540D01*
X433750Y1393152D01*
X435701Y1393540D01*
X437355Y1394645D01*
X438460Y1396299D01*
X438848Y1398250D01*
X438460Y1400201D01*
X437355Y1401855D01*
X435701Y1402960D01*
X433750Y1403348D01*
X431799Y1402960D01*
X430145Y1401855D01*
X429115Y1400313D01*
X427900Y1400682D01*
Y1404100D01*
X425000D01*
Y1410500D01*
X427900D01*
Y1429500D01*
X425000D01*
Y1435900D01*
X427900D01*
Y1454900D01*
X425000D01*
Y1461300D01*
X427900D01*
Y1480300D01*
X425000D01*
Y1486700D01*
X427900D01*
Y1505700D01*
X425000D01*
Y1512100D01*
X427900D01*
Y1531100D01*
X425000D01*
Y1545000D01*
X485000D01*
Y1605000D01*
X615000D01*
Y1531100D01*
D02*
G37*
%LPC*%
G36*
X570000Y1565098D02*
X568049Y1564710D01*
X566395Y1563605D01*
X565290Y1561951D01*
X564902Y1560000D01*
X565290Y1558049D01*
X566395Y1556395D01*
X568049Y1555290D01*
X570000Y1554902D01*
X571951Y1555290D01*
X573605Y1556395D01*
X574710Y1558049D01*
X575098Y1560000D01*
X574710Y1561951D01*
X573605Y1563605D01*
X571951Y1564710D01*
X570000Y1565098D01*
D02*
G37*
G36*
X582500Y1555098D02*
X580549Y1554710D01*
X578895Y1553605D01*
X577790Y1551951D01*
X577402Y1550000D01*
X577790Y1548049D01*
X578895Y1546395D01*
X580549Y1545290D01*
X582500Y1544902D01*
X584451Y1545290D01*
X586105Y1546395D01*
X587210Y1548049D01*
X587598Y1550000D01*
X587210Y1551951D01*
X586105Y1553605D01*
X584451Y1554710D01*
X582500Y1555098D01*
D02*
G37*
G36*
X552000Y1533848D02*
X550049Y1533460D01*
X548395Y1532355D01*
X547731Y1531360D01*
X547349Y1531518D01*
X545000Y1531828D01*
X542650Y1531518D01*
X540461Y1530611D01*
X538581Y1529169D01*
X537138Y1527289D01*
X536231Y1525099D01*
X535922Y1522750D01*
X536231Y1520401D01*
X536883Y1518828D01*
X536248Y1517729D01*
X534650Y1517518D01*
X532461Y1516611D01*
X530581Y1515169D01*
X529138Y1513289D01*
X528232Y1511100D01*
X527922Y1508750D01*
X528232Y1506400D01*
X529138Y1504211D01*
X530581Y1502331D01*
X532461Y1500889D01*
X534650Y1499982D01*
X537000Y1499672D01*
X539350Y1499982D01*
X541539Y1500889D01*
X542781Y1501842D01*
X543955Y1501356D01*
X543982Y1501151D01*
X544889Y1498961D01*
X546331Y1497081D01*
X548211Y1495639D01*
X550401Y1494732D01*
X552750Y1494422D01*
X555100Y1494732D01*
X557289Y1495639D01*
X559169Y1497081D01*
X560612Y1498961D01*
X561519Y1501151D01*
X561828Y1503500D01*
X561519Y1505849D01*
X560612Y1508039D01*
X559903Y1508962D01*
X559919Y1509081D01*
X561361Y1510961D01*
X562268Y1513150D01*
X562578Y1515500D01*
X562268Y1517849D01*
X561361Y1520039D01*
X559919Y1521919D01*
X558039Y1523361D01*
X556124Y1524155D01*
X555755Y1525370D01*
X556710Y1526799D01*
X557098Y1528750D01*
X556710Y1530701D01*
X555605Y1532355D01*
X553951Y1533460D01*
X552000Y1533848D01*
D02*
G37*
G36*
X492313Y1538098D02*
X490363Y1537710D01*
X488709Y1536605D01*
X487604Y1534951D01*
X487215Y1533000D01*
X487604Y1531049D01*
X488709Y1529395D01*
X490363Y1528290D01*
X492313Y1527902D01*
X494264Y1528290D01*
X495918Y1529395D01*
X497023Y1531049D01*
X497411Y1533000D01*
X497023Y1534951D01*
X495918Y1536605D01*
X494264Y1537710D01*
X492313Y1538098D01*
D02*
G37*
G36*
X453753Y1536359D02*
X451802Y1535971D01*
X450148Y1534866D01*
X449043Y1533212D01*
X448655Y1531261D01*
X449043Y1529310D01*
X450148Y1527657D01*
X451802Y1526551D01*
X453753Y1526163D01*
X455704Y1526551D01*
X457357Y1527657D01*
X458462Y1529310D01*
X458851Y1531261D01*
X458462Y1533212D01*
X457357Y1534866D01*
X455704Y1535971D01*
X453753Y1536359D01*
D02*
G37*
G36*
X468000Y1527598D02*
X466049Y1527210D01*
X464395Y1526105D01*
X463290Y1524451D01*
X462902Y1522500D01*
X463290Y1520549D01*
X464395Y1518895D01*
X466049Y1517790D01*
X468000Y1517402D01*
X469951Y1517790D01*
X471605Y1518895D01*
X472710Y1520549D01*
X473098Y1522500D01*
X472710Y1524451D01*
X471605Y1526105D01*
X469951Y1527210D01*
X468000Y1527598D01*
D02*
G37*
G36*
X596250Y1523848D02*
X594299Y1523460D01*
X592645Y1522355D01*
X591540Y1520701D01*
X591152Y1518750D01*
X591540Y1516799D01*
X592645Y1515145D01*
X594299Y1514040D01*
X596250Y1513652D01*
X598201Y1514040D01*
X599855Y1515145D01*
X600960Y1516799D01*
X601348Y1518750D01*
X600960Y1520701D01*
X599855Y1522355D01*
X598201Y1523460D01*
X596250Y1523848D01*
D02*
G37*
G36*
X490089Y1521598D02*
X488138Y1521210D01*
X486484Y1520105D01*
X485379Y1518451D01*
X484991Y1516500D01*
X485379Y1514549D01*
X486484Y1512895D01*
X488138Y1511790D01*
X490089Y1511402D01*
X492040Y1511790D01*
X493694Y1512895D01*
X494799Y1514549D01*
X495187Y1516500D01*
X494799Y1518451D01*
X493694Y1520105D01*
X492040Y1521210D01*
X490089Y1521598D01*
D02*
G37*
G36*
X482000Y1487078D02*
X479650Y1486768D01*
X477461Y1485861D01*
X475581Y1484419D01*
X474138Y1482539D01*
X473232Y1480349D01*
X472922Y1478000D01*
X473232Y1475650D01*
X473915Y1474000D01*
X473232Y1472350D01*
X472922Y1470000D01*
X473232Y1467650D01*
X474138Y1465461D01*
X475581Y1463581D01*
X477461Y1462139D01*
X479650Y1461232D01*
X482000Y1460922D01*
X484350Y1461232D01*
X486539Y1462139D01*
X488419Y1463581D01*
X489861Y1465461D01*
X490768Y1467650D01*
X491078Y1470000D01*
X490768Y1472350D01*
X490085Y1474000D01*
X490768Y1475650D01*
X491078Y1478000D01*
X490768Y1480349D01*
X489861Y1482539D01*
X488419Y1484419D01*
X486539Y1485861D01*
X484350Y1486768D01*
X482000Y1487078D01*
D02*
G37*
G36*
X514500Y1466598D02*
X512549Y1466210D01*
X510895Y1465105D01*
X509790Y1463451D01*
X509402Y1461500D01*
X509790Y1459549D01*
X510895Y1457895D01*
X512549Y1456790D01*
X514500Y1456402D01*
X516451Y1456790D01*
X518105Y1457895D01*
X519210Y1459549D01*
X519598Y1461500D01*
X519210Y1463451D01*
X518105Y1465105D01*
X516451Y1466210D01*
X514500Y1466598D01*
D02*
G37*
G36*
X459750Y1443098D02*
X457799Y1442710D01*
X456145Y1441605D01*
X455355D01*
X453701Y1442710D01*
X451750Y1443098D01*
X449799Y1442710D01*
X448145Y1441605D01*
X447040Y1439951D01*
X446652Y1438000D01*
X447040Y1436049D01*
X448145Y1434395D01*
X449799Y1433290D01*
X451750Y1432902D01*
X453701Y1433290D01*
X455355Y1434395D01*
X456145D01*
X457799Y1433290D01*
X459750Y1432902D01*
X461701Y1433290D01*
X463355Y1434395D01*
X464460Y1436049D01*
X464848Y1438000D01*
X464460Y1439951D01*
X463355Y1441605D01*
X461701Y1442710D01*
X459750Y1443098D01*
D02*
G37*
G36*
X465750Y1462098D02*
X463799Y1461710D01*
X462145Y1460605D01*
X461040Y1458951D01*
X460652Y1457000D01*
X461040Y1455049D01*
X462145Y1453395D01*
X463799Y1452290D01*
X465750Y1451902D01*
X467701Y1452290D01*
X469127Y1453243D01*
X470300Y1452757D01*
X470540Y1451549D01*
X471645Y1449895D01*
X472531Y1449303D01*
X472779Y1448058D01*
X472540Y1447701D01*
X472152Y1445750D01*
X472540Y1443799D01*
X473645Y1442145D01*
X475299Y1441040D01*
X477250Y1440652D01*
X479201Y1441040D01*
X480855Y1442145D01*
X481960Y1443799D01*
X482348Y1445750D01*
X481960Y1447701D01*
X480855Y1449355D01*
X479969Y1449947D01*
X479721Y1451192D01*
X479960Y1451549D01*
X480348Y1453500D01*
X479960Y1455451D01*
X478855Y1457105D01*
X477201Y1458210D01*
X475250Y1458598D01*
X473299Y1458210D01*
X471873Y1457257D01*
X470700Y1457743D01*
X470460Y1458951D01*
X469355Y1460605D01*
X467701Y1461710D01*
X465750Y1462098D01*
D02*
G37*
G36*
X542750Y1457078D02*
X540401Y1456768D01*
X538211Y1455862D01*
X536331Y1454419D01*
X534889Y1452539D01*
X533982Y1450350D01*
X533672Y1448000D01*
X533982Y1445651D01*
X534889Y1443461D01*
X536331Y1441581D01*
X538211Y1440139D01*
X540401Y1439232D01*
X542750Y1438922D01*
X545099Y1439232D01*
X547289Y1440139D01*
X549169Y1441581D01*
X550611Y1443461D01*
X551518Y1445651D01*
X551828Y1448000D01*
X551518Y1450350D01*
X550611Y1452539D01*
X549169Y1454419D01*
X547289Y1455862D01*
X545099Y1456768D01*
X542750Y1457078D01*
D02*
G37*
G36*
X494750Y1448848D02*
X492799Y1448460D01*
X491145Y1447355D01*
X490040Y1445701D01*
X489652Y1443750D01*
X490040Y1441799D01*
X491145Y1440145D01*
X492799Y1439040D01*
X494750Y1438652D01*
X496701Y1439040D01*
X498355Y1440145D01*
X499460Y1441799D01*
X499848Y1443750D01*
X499460Y1445701D01*
X498355Y1447355D01*
X496701Y1448460D01*
X494750Y1448848D01*
D02*
G37*
G36*
X481250Y1428848D02*
X479299Y1428460D01*
X477645Y1427355D01*
X476540Y1425701D01*
X476152Y1423750D01*
X476540Y1421799D01*
X477080Y1420992D01*
X476594Y1419818D01*
X476049Y1419710D01*
X474395Y1418605D01*
X473290Y1416951D01*
X472902Y1415000D01*
X473290Y1413049D01*
X474395Y1411395D01*
X476049Y1410290D01*
X478000Y1409902D01*
X479951Y1410290D01*
X481605Y1411395D01*
X482710Y1413049D01*
X483098Y1415000D01*
X482710Y1416951D01*
X482170Y1417758D01*
X482656Y1418932D01*
X483201Y1419040D01*
X484855Y1420145D01*
X485960Y1421799D01*
X486348Y1423750D01*
X485960Y1425701D01*
X484855Y1427355D01*
X483201Y1428460D01*
X481250Y1428848D01*
D02*
G37*
G36*
X495500Y1403598D02*
X493549Y1403210D01*
X491895Y1402105D01*
X490790Y1400451D01*
X490402Y1398500D01*
X490790Y1396549D01*
X491895Y1394895D01*
X493549Y1393790D01*
X495500Y1393402D01*
X497451Y1393790D01*
X499105Y1394895D01*
X500210Y1396549D01*
X500598Y1398500D01*
X500210Y1400451D01*
X499105Y1402105D01*
X497451Y1403210D01*
X495500Y1403598D01*
D02*
G37*
G36*
X532750Y1393848D02*
X530799Y1393460D01*
X529145Y1392355D01*
X528040Y1390701D01*
X527652Y1388750D01*
X528040Y1386799D01*
X529145Y1385145D01*
X530799Y1384040D01*
X532750Y1383652D01*
X534701Y1384040D01*
X536355Y1385145D01*
X537460Y1386799D01*
X537848Y1388750D01*
X537460Y1390701D01*
X536355Y1392355D01*
X534701Y1393460D01*
X532750Y1393848D01*
D02*
G37*
G36*
X445750Y1389598D02*
X443799Y1389210D01*
X442145Y1388105D01*
X441040Y1386451D01*
X440652Y1384500D01*
X441040Y1382549D01*
X442145Y1380895D01*
X443799Y1379790D01*
X445750Y1379402D01*
X447701Y1379790D01*
X449355Y1380895D01*
X450460Y1382549D01*
X450848Y1384500D01*
X450460Y1386451D01*
X449355Y1388105D01*
X447701Y1389210D01*
X445750Y1389598D01*
D02*
G37*
G36*
X437000Y1355098D02*
X435049Y1354710D01*
X433395Y1353605D01*
X432290Y1351951D01*
X431902Y1350000D01*
X432290Y1348049D01*
X433395Y1346395D01*
X435049Y1345290D01*
X437000Y1344902D01*
X438951Y1345290D01*
X440605Y1346395D01*
X441710Y1348049D01*
X442098Y1350000D01*
X441710Y1351951D01*
X440605Y1353605D01*
X438951Y1354710D01*
X437000Y1355098D01*
D02*
G37*
G36*
X489750Y1353348D02*
X487799Y1352960D01*
X486145Y1351855D01*
X485040Y1350201D01*
X484652Y1348250D01*
X485040Y1346299D01*
X486145Y1344645D01*
X487799Y1343540D01*
X489750Y1343152D01*
X491701Y1343540D01*
X493355Y1344645D01*
X494460Y1346299D01*
X494848Y1348250D01*
X494460Y1350201D01*
X493355Y1351855D01*
X491701Y1352960D01*
X489750Y1353348D01*
D02*
G37*
G36*
X600000Y1349598D02*
X598049Y1349210D01*
X596395Y1348105D01*
X595290Y1346451D01*
X594902Y1344500D01*
X595290Y1342549D01*
X596395Y1340895D01*
X598049Y1339790D01*
X600000Y1339402D01*
X601951Y1339790D01*
X603605Y1340895D01*
X604710Y1342549D01*
X605098Y1344500D01*
X604710Y1346451D01*
X603605Y1348105D01*
X601951Y1349210D01*
X600000Y1349598D01*
D02*
G37*
G36*
X444500Y1344098D02*
X442549Y1343710D01*
X440895Y1342605D01*
X439790Y1340951D01*
X439402Y1339000D01*
X439790Y1337049D01*
X440895Y1335395D01*
X442549Y1334290D01*
X444500Y1333902D01*
X446451Y1334290D01*
X448105Y1335395D01*
X449210Y1337049D01*
X449598Y1339000D01*
X449210Y1340951D01*
X448105Y1342605D01*
X446451Y1343710D01*
X444500Y1344098D01*
D02*
G37*
G36*
X535000Y1340099D02*
X533049Y1339711D01*
X531395Y1338606D01*
X530290Y1336952D01*
X529902Y1335001D01*
X530290Y1333050D01*
X531395Y1331396D01*
X533049Y1330291D01*
X535000Y1329903D01*
X536951Y1330291D01*
X538605Y1331396D01*
X539710Y1333050D01*
X540098Y1335001D01*
X539710Y1336952D01*
X538605Y1338606D01*
X536951Y1339711D01*
X535000Y1340099D01*
D02*
G37*
%LPD*%
D34*
X418400Y1496200D02*
D03*
Y1318400D02*
D03*
Y1343800D02*
D03*
Y1369200D02*
D03*
Y1394600D02*
D03*
Y1420000D02*
D03*
Y1445400D02*
D03*
Y1470800D02*
D03*
Y1521600D02*
D03*
X621600Y1470800D02*
D03*
Y1445400D02*
D03*
Y1420000D02*
D03*
Y1394600D02*
D03*
Y1369200D02*
D03*
Y1343800D02*
D03*
Y1318400D02*
D03*
Y1496200D02*
D03*
Y1521600D02*
D03*
D35*
X525000Y1473500D02*
D03*
X509500D02*
D03*
X494000D02*
D03*
X525000Y1489000D02*
D03*
X509500D02*
D03*
X494000D02*
D03*
X525000Y1504500D02*
D03*
X509500D02*
D03*
X494000D02*
D03*
X467000Y1449000D02*
D03*
X494750Y1443750D02*
D03*
X433750Y1398250D02*
D03*
X445750Y1384500D02*
D03*
X459750Y1438000D02*
D03*
X481250Y1423750D02*
D03*
X478000Y1415000D02*
D03*
X453753Y1531261D02*
D03*
X492313Y1533000D02*
D03*
X465750Y1466500D02*
D03*
X444750Y1486000D02*
D03*
X477250Y1445750D02*
D03*
X465750Y1457000D02*
D03*
X475250Y1453500D02*
D03*
X468000Y1522500D02*
D03*
X475000Y1540000D02*
D03*
X490000Y1552000D02*
D03*
X490089Y1516500D02*
D03*
X445000Y1540000D02*
D03*
X451750Y1438000D02*
D03*
X532750Y1388750D02*
D03*
X496000Y1379000D02*
D03*
X514500Y1461500D02*
D03*
X610000Y1549000D02*
D03*
Y1566000D02*
D03*
Y1583000D02*
D03*
X520000Y1592000D02*
D03*
X505000D02*
D03*
Y1600000D02*
D03*
X520000D02*
D03*
X535000D02*
D03*
X550000D02*
D03*
X565000D02*
D03*
X580000D02*
D03*
X595000D02*
D03*
X610000D02*
D03*
X582500Y1550000D02*
D03*
X570000Y1560000D02*
D03*
X490000Y1600000D02*
D03*
Y1592000D02*
D03*
Y1564000D02*
D03*
X460000Y1540000D02*
D03*
X430000D02*
D03*
X596250Y1518750D02*
D03*
X553750Y1481500D02*
D03*
X584250Y1524500D02*
D03*
X552750Y1503500D02*
D03*
X553500Y1515500D02*
D03*
X545000Y1522750D02*
D03*
X537000Y1508750D02*
D03*
X542750Y1448000D02*
D03*
X569250Y1443750D02*
D03*
X602500Y1478750D02*
D03*
X585500Y1327500D02*
D03*
X575000Y1310000D02*
D03*
X535000Y1335001D02*
D03*
X444500Y1339000D02*
D03*
X482000Y1470000D02*
D03*
Y1478000D02*
D03*
X455000Y1355000D02*
D03*
X495500Y1398500D02*
D03*
X510000Y1418750D02*
D03*
X570500Y1367000D02*
D03*
X589500D02*
D03*
X561500Y1401000D02*
D03*
X489750Y1348250D02*
D03*
X600000Y1310000D02*
D03*
X435000D02*
D03*
X455000D02*
D03*
X603000Y1401000D02*
D03*
X552000Y1528750D02*
D03*
X509250Y1565250D02*
D03*
X524250Y1566500D02*
D03*
X524000Y1540000D02*
D03*
Y1550000D02*
D03*
X521000Y1578500D02*
D03*
X489504Y1541012D02*
D03*
X432000Y1471000D02*
D03*
X462000Y1411000D02*
D03*
X427000Y1382000D02*
D03*
X437000Y1350000D02*
D03*
X600000Y1344500D02*
D03*
M02*
