G04 Layer_Physical_Order=1*
G04 Layer_Color=255*
%FSLAX44Y44*%
%MOMM*%
G71*
G01*
G75*
%ADD10C,0.3200*%
%ADD11R,1.1000X0.6000*%
%ADD12R,0.8000X0.8000*%
%ADD13R,0.6000X2.2000*%
%ADD14R,1.1500X1.4000*%
%ADD15O,0.7000X0.2500*%
%ADD16O,0.2500X0.7000*%
%ADD17R,4.5000X4.5000*%
%ADD18R,1.3000X0.6000*%
%ADD19R,0.7000X0.3500*%
%ADD20R,0.7000X0.7000*%
%ADD21R,0.6000X0.5500*%
%ADD22R,0.5000X0.6500*%
%ADD23R,0.7620X0.7620*%
%ADD24R,1.9000X1.1000*%
%ADD25O,2.2000X0.6000*%
%ADD26R,0.8000X1.6000*%
%ADD27R,0.5000X0.6000*%
%ADD28R,0.6500X0.5000*%
%ADD29R,0.5500X0.6000*%
%ADD30C,0.2000*%
%ADD31C,0.2500*%
%ADD32C,0.3000*%
%ADD33C,0.3500*%
%ADD34R,1.5000X1.5000*%
%ADD35C,0.6000*%
G36*
X615000Y1534185D02*
X613827Y1533699D01*
X606113Y1541413D01*
X605121Y1542076D01*
X603950Y1542309D01*
X603950Y1542309D01*
X532833D01*
X531662Y1542076D01*
X530670Y1541413D01*
X522173Y1532916D01*
X521000Y1533402D01*
Y1542000D01*
Y1553000D01*
X524500D01*
Y1564500D01*
X494500D01*
Y1553000D01*
X498000D01*
Y1542000D01*
Y1535677D01*
X496785Y1535308D01*
X495918Y1536605D01*
X494264Y1537710D01*
X492313Y1538098D01*
X490363Y1537710D01*
X488709Y1536605D01*
X487604Y1534951D01*
X487432Y1534086D01*
X486258Y1533600D01*
X485920Y1533826D01*
X484750Y1534059D01*
X484750Y1534059D01*
X457897D01*
X457357Y1534866D01*
X455704Y1535971D01*
X453753Y1536359D01*
X451802Y1535971D01*
X450148Y1534866D01*
X449043Y1533212D01*
X448655Y1531261D01*
X449043Y1529310D01*
X450148Y1527657D01*
X451802Y1526551D01*
X453753Y1526163D01*
X455704Y1526551D01*
X457357Y1527657D01*
X457548Y1527941D01*
X464956D01*
X465325Y1526726D01*
X464395Y1526105D01*
X463290Y1524451D01*
X462902Y1522500D01*
X463290Y1520549D01*
X462761Y1519559D01*
X427900D01*
Y1531100D01*
X425000D01*
Y1545000D01*
X485000D01*
Y1561426D01*
Y1575000D01*
X494500D01*
Y1566000D01*
X509500D01*
Y1568167D01*
X512234Y1570265D01*
X514535Y1573263D01*
X515461Y1575500D01*
X518000D01*
Y1588500D01*
X496500D01*
Y1589000D01*
X485000D01*
Y1605000D01*
X615000D01*
Y1534185D01*
D02*
G37*
G36*
X608041Y1524133D02*
Y1506700D01*
X608041Y1506700D01*
X608274Y1505529D01*
X608937Y1504537D01*
X612100Y1501374D01*
Y1486700D01*
X615000D01*
Y1484300D01*
X608100D01*
Y1457300D01*
Y1431900D01*
Y1406500D01*
Y1381100D01*
Y1359871D01*
X608000Y1359789D01*
X582000D01*
X581803Y1359750D01*
X580000D01*
Y1359750D01*
Y1359750D01*
X580000D01*
Y1359750D01*
X578197D01*
X578000Y1359789D01*
X557250D01*
X557250Y1359789D01*
X556470Y1359634D01*
X555808Y1359192D01*
X555808Y1359192D01*
X555441Y1358825D01*
X554190D01*
Y1357574D01*
X552905Y1356289D01*
X544500D01*
X544303Y1356250D01*
X542500D01*
D01*
X542500Y1356250D01*
X542500D01*
Y1365000D01*
X543000D01*
Y1374000D01*
X543000Y1374000D01*
X543000D01*
X542803Y1374477D01*
X549163Y1380837D01*
X549163Y1380837D01*
X549826Y1381830D01*
X550059Y1383000D01*
X550059Y1383000D01*
Y1417500D01*
X550059Y1417500D01*
X549826Y1418671D01*
X549163Y1419663D01*
X549163Y1419663D01*
X542809Y1426017D01*
Y1438930D01*
X544736Y1439184D01*
X545691Y1438347D01*
Y1431750D01*
X545691Y1431750D01*
X545924Y1430580D01*
X546587Y1429587D01*
X557000Y1419174D01*
Y1413750D01*
X566000D01*
Y1415941D01*
X571983D01*
X572500Y1415424D01*
Y1404750D01*
X595500D01*
Y1419750D01*
X576826D01*
X575413Y1421163D01*
X574421Y1421826D01*
X573250Y1422059D01*
X573250Y1422059D01*
X566000D01*
Y1424250D01*
D01*
Y1424250D01*
X566000Y1424250D01*
Y1425250D01*
X566000D01*
Y1427441D01*
X573250D01*
X573250Y1427441D01*
X574421Y1427674D01*
X575413Y1428337D01*
X576767Y1429691D01*
X579500D01*
X579500Y1429691D01*
X579795Y1429750D01*
X595500D01*
Y1444750D01*
X572500D01*
Y1434076D01*
X571983Y1433559D01*
X566000D01*
Y1435750D01*
X558326D01*
X556309Y1437767D01*
Y1455750D01*
X557000D01*
Y1455750D01*
X566000D01*
Y1462424D01*
X566827Y1463251D01*
X568000Y1462765D01*
Y1447000D01*
X584250D01*
Y1447000D01*
X599750D01*
Y1447000D01*
X600000D01*
Y1487000D01*
X580228D01*
X579742Y1488173D01*
X582273Y1490705D01*
X590310D01*
Y1493456D01*
X594000D01*
Y1491000D01*
X605000D01*
Y1502000D01*
X594000D01*
Y1499574D01*
X590310D01*
Y1502325D01*
X578690D01*
Y1495773D01*
X574476Y1491559D01*
X568024D01*
X567000Y1492583D01*
Y1498500D01*
D01*
Y1498500D01*
X567000Y1498500D01*
Y1499500D01*
X567000D01*
Y1508500D01*
X560909D01*
X560347Y1509639D01*
X561361Y1510961D01*
X562268Y1513150D01*
X562578Y1515500D01*
X562268Y1517849D01*
X561815Y1518944D01*
X562520Y1520000D01*
X567000D01*
Y1529000D01*
X561576D01*
X559663Y1530913D01*
X559569Y1530976D01*
X559937Y1532191D01*
X599983D01*
X608041Y1524133D01*
D02*
G37*
G36*
X455000Y1454260D02*
Y1451750D01*
X464000D01*
Y1451750D01*
X464491Y1452153D01*
X465750Y1451902D01*
X467701Y1452290D01*
X469127Y1453243D01*
X470300Y1452757D01*
X470540Y1451549D01*
X471645Y1449895D01*
X472531Y1449303D01*
X472779Y1448058D01*
X472540Y1447701D01*
X472152Y1445750D01*
X472540Y1443799D01*
X473645Y1442145D01*
X475299Y1441040D01*
X477175Y1440667D01*
X477543Y1439452D01*
X465837Y1427746D01*
X465774Y1427651D01*
X464559Y1428020D01*
Y1436250D01*
X464529Y1436398D01*
X464848Y1438000D01*
X464460Y1439951D01*
X463355Y1441605D01*
X461701Y1442710D01*
X459750Y1443098D01*
X457799Y1442710D01*
X456145Y1441605D01*
X455355D01*
X453701Y1442710D01*
X451750Y1443098D01*
X449799Y1442710D01*
X448145Y1441605D01*
X447040Y1439951D01*
X446652Y1438000D01*
X446974Y1436380D01*
X446169Y1435398D01*
X439500D01*
X437549Y1435010D01*
X437179Y1434763D01*
X436757Y1434988D01*
X436570Y1436244D01*
X452913Y1452587D01*
X453576Y1453579D01*
X453736Y1454385D01*
X455000Y1454260D01*
D02*
G37*
G36*
X508686Y1451250D02*
X508939Y1449982D01*
X508941Y1449978D01*
Y1437750D01*
X508941Y1437750D01*
X509174Y1436579D01*
X509837Y1435587D01*
X511000Y1434424D01*
Y1429000D01*
X520000D01*
Y1434515D01*
X520694Y1434802D01*
X521750Y1434097D01*
Y1429000D01*
X528691D01*
Y1421436D01*
X528691Y1421436D01*
X528924Y1420266D01*
X529587Y1419273D01*
X535941Y1412919D01*
Y1393978D01*
X534821Y1393380D01*
X534701Y1393460D01*
X532750Y1393848D01*
X530799Y1393460D01*
X529145Y1392355D01*
X528040Y1390701D01*
X527652Y1388750D01*
X527495Y1388559D01*
X508428D01*
X507829Y1389679D01*
X508210Y1390249D01*
X508598Y1392200D01*
X508210Y1394151D01*
X507105Y1395805D01*
X505451Y1396910D01*
X503500Y1397298D01*
X501360D01*
X500554Y1398280D01*
X500598Y1398500D01*
X500534Y1398820D01*
X501340Y1399802D01*
X503500D01*
X505451Y1400190D01*
X505453Y1400191D01*
X511000D01*
Y1398000D01*
X520000D01*
Y1408500D01*
X511000D01*
Y1406309D01*
X508318D01*
X508210Y1406851D01*
X507105Y1408505D01*
X505451Y1409610D01*
X503500Y1409998D01*
X487500D01*
X485549Y1409610D01*
X483895Y1408505D01*
X482790Y1406851D01*
X482402Y1404900D01*
X482790Y1402949D01*
X483895Y1401295D01*
X485549Y1400190D01*
X487500Y1399802D01*
X489660D01*
X490466Y1398820D01*
X490402Y1398500D01*
X490446Y1398280D01*
X489640Y1397298D01*
X487500D01*
X485549Y1396910D01*
X483895Y1395805D01*
X482790Y1394151D01*
X482453Y1392457D01*
X482079Y1392343D01*
X481059Y1393100D01*
Y1411030D01*
X481605Y1411395D01*
X482710Y1413049D01*
X483098Y1415000D01*
X482710Y1416951D01*
X482170Y1417758D01*
X482656Y1418932D01*
X483201Y1419040D01*
X484855Y1420145D01*
X485960Y1421799D01*
X486348Y1423750D01*
X486223Y1424379D01*
X487121Y1425278D01*
X487500Y1425202D01*
X503500D01*
X505451Y1425590D01*
X507105Y1426695D01*
X508210Y1428349D01*
X508598Y1430300D01*
X508210Y1432251D01*
X507105Y1433905D01*
X505451Y1435010D01*
X503500Y1435398D01*
X500868D01*
X500382Y1436571D01*
X504163Y1440352D01*
X504826Y1441344D01*
X505059Y1442515D01*
X505059Y1442515D01*
Y1449978D01*
X505061Y1449982D01*
X505314Y1451250D01*
Y1454250D01*
X508686D01*
Y1451250D01*
D02*
G37*
G36*
X464941Y1422063D02*
Y1397482D01*
X461284Y1393825D01*
X460210Y1394151D01*
X459105Y1395805D01*
X457451Y1396910D01*
X455500Y1397298D01*
X443634D01*
X439525Y1398115D01*
X439156Y1399331D01*
X439628Y1399802D01*
X455500D01*
X457451Y1400190D01*
X459105Y1401295D01*
X460210Y1402949D01*
X460598Y1404900D01*
X460210Y1406851D01*
X459105Y1408505D01*
X457451Y1409610D01*
X455500Y1409998D01*
X439500D01*
X437549Y1409610D01*
X437310Y1409451D01*
X437095Y1409407D01*
X436059Y1409961D01*
Y1412539D01*
X437179Y1413138D01*
X437549Y1412890D01*
X439500Y1412502D01*
X455500D01*
X457451Y1412890D01*
X459105Y1413995D01*
X460210Y1415649D01*
X460598Y1417600D01*
X460321Y1418995D01*
X463663Y1422337D01*
X463663Y1422337D01*
X463726Y1422431D01*
X464941Y1422063D01*
D02*
G37*
G36*
X474718Y1391562D02*
X474941Y1391227D01*
Y1391000D01*
X474941Y1391000D01*
X475174Y1389830D01*
X475837Y1388837D01*
X481337Y1383337D01*
X482329Y1382674D01*
X483500Y1382441D01*
X528498D01*
X529303Y1381459D01*
X529221Y1381047D01*
X521573Y1373399D01*
X520400Y1373885D01*
Y1380750D01*
X510400D01*
Y1354750D01*
X512341D01*
Y1351417D01*
X502733Y1341809D01*
X448637D01*
X448105Y1342605D01*
X446451Y1343710D01*
X444500Y1344098D01*
X442549Y1343710D01*
X441179Y1342794D01*
X440059Y1343393D01*
Y1346030D01*
X440605Y1346395D01*
X441710Y1348049D01*
X442098Y1350000D01*
X441710Y1351951D01*
X440605Y1353605D01*
X438951Y1354710D01*
X437000Y1355098D01*
X435430Y1354786D01*
X434832Y1355906D01*
X441067Y1362141D01*
X451849D01*
X451849Y1362141D01*
X453020Y1362374D01*
X454012Y1363037D01*
X460163Y1369188D01*
X460163Y1369188D01*
X460826Y1370180D01*
X460826Y1370180D01*
X460826Y1370180D01*
X461059Y1371351D01*
X461059Y1371351D01*
Y1379291D01*
X473455Y1391687D01*
X474718Y1391562D01*
D02*
G37*
G36*
X578000Y1343000D02*
X581000Y1340000D01*
Y1334000D01*
X551500D01*
X544500Y1341000D01*
Y1354250D01*
X553750D01*
X557250Y1357750D01*
X578000D01*
Y1343000D01*
D02*
G37*
G36*
X543500Y1332750D02*
Y1324500D01*
X530500D01*
X521250Y1333750D01*
Y1336313D01*
X524500Y1338750D01*
X537500D01*
X543500Y1332750D01*
D02*
G37*
G36*
X532500Y1368265D02*
Y1365000D01*
Y1355750D01*
X532500D01*
Y1346750D01*
X542461D01*
Y1341000D01*
X542461Y1341000D01*
X542616Y1340220D01*
X543058Y1339558D01*
X543058Y1339558D01*
X549500Y1333116D01*
Y1332000D01*
X551303D01*
X551500Y1331961D01*
X581000D01*
X581197Y1332000D01*
X583000D01*
Y1332785D01*
X584173Y1333271D01*
X588076Y1329368D01*
X588750Y1328777D01*
X588750Y1326500D01*
X586500Y1324250D01*
X586417D01*
X584173Y1322006D01*
X583000Y1322493D01*
Y1323000D01*
X568500D01*
X568000Y1322500D01*
Y1313250D01*
X568500Y1313000D01*
X583000D01*
Y1314941D01*
X584492D01*
X584493Y1314941D01*
X585663Y1315174D01*
X586656Y1315837D01*
X590827Y1320008D01*
X592000Y1319522D01*
Y1313000D01*
X605461D01*
Y1311000D01*
X605616Y1310220D01*
X606058Y1309558D01*
X606720Y1309116D01*
X607500Y1308961D01*
X612100D01*
Y1308900D01*
X615000D01*
Y1305000D01*
X425000D01*
Y1308900D01*
X427900D01*
Y1327900D01*
X425000D01*
Y1334300D01*
X427900D01*
Y1348974D01*
X431094Y1352168D01*
X432214Y1351570D01*
X431902Y1350000D01*
X432290Y1348049D01*
X433395Y1346395D01*
X433941Y1346030D01*
Y1327500D01*
X433941Y1327500D01*
X434174Y1326329D01*
X434837Y1325337D01*
X439750Y1320424D01*
Y1315000D01*
X449250D01*
Y1316941D01*
X459600D01*
Y1309250D01*
X469600D01*
Y1335250D01*
D01*
Y1335250D01*
X470041Y1335691D01*
X472300D01*
Y1335691D01*
Y1335250D01*
X472300Y1334793D01*
X472300Y1334793D01*
X472300D01*
Y1309250D01*
X482300D01*
Y1334793D01*
X482300Y1334793D01*
D01*
D01*
X482300Y1335250D01*
D01*
X482741Y1335691D01*
X485000D01*
Y1335691D01*
Y1335250D01*
X485000Y1334793D01*
X485000Y1334793D01*
X485000D01*
Y1309250D01*
X495000D01*
Y1334793D01*
X495000Y1334793D01*
D01*
D01*
X495000Y1335250D01*
D01*
X495441Y1335691D01*
X497700D01*
Y1335250D01*
X497700D01*
Y1309250D01*
X507700D01*
Y1331281D01*
X509227Y1332808D01*
X510400Y1332322D01*
Y1309250D01*
X520400D01*
Y1330057D01*
X521573Y1330543D01*
X528500Y1323616D01*
Y1322500D01*
X530303D01*
X530500Y1322461D01*
X543500D01*
X543697Y1322500D01*
X545500D01*
Y1324303D01*
X545539Y1324500D01*
Y1332750D01*
X545384Y1333530D01*
X544942Y1334192D01*
X538942Y1340192D01*
X538280Y1340634D01*
X537500Y1340789D01*
X524524D01*
X524478Y1340902D01*
X524229Y1342153D01*
X527563Y1345487D01*
X528226Y1346479D01*
X528459Y1347650D01*
X528459Y1347650D01*
Y1365883D01*
X531327Y1368751D01*
X532500Y1368265D01*
D02*
G37*
G36*
X608000Y1339500D02*
X621750Y1325750D01*
X629000D01*
Y1311000D01*
X607500D01*
Y1323750D01*
X604250D01*
X582000Y1346000D01*
Y1357750D01*
X608000D01*
Y1339500D01*
D02*
G37*
%LPC*%
G36*
X602693Y1596805D02*
X538730D01*
Y1577818D01*
Y1563055D01*
X564700D01*
X565290Y1561951D01*
X564902Y1560000D01*
X565290Y1558049D01*
X566395Y1556395D01*
X568049Y1555290D01*
X570000Y1554902D01*
X571951Y1555290D01*
X573605Y1556395D01*
X574710Y1558049D01*
X575098Y1560000D01*
X574970Y1560644D01*
X576327Y1562001D01*
X577222Y1561630D01*
Y1561630D01*
X577500Y1561515D01*
Y1552750D01*
X577500Y1552750D01*
X577500D01*
X577866Y1552065D01*
X577790Y1551951D01*
X577402Y1550000D01*
X577790Y1548049D01*
X578895Y1546395D01*
X580549Y1545290D01*
X582500Y1544902D01*
X584451Y1545290D01*
X586105Y1546395D01*
X587210Y1548049D01*
X587598Y1550000D01*
X587246Y1551768D01*
X587622Y1552226D01*
X588406Y1552750D01*
X597500D01*
Y1558342D01*
X597826Y1558829D01*
X597826Y1558829D01*
X597826Y1558829D01*
X598059Y1560000D01*
X598059Y1560000D01*
Y1566500D01*
X601000D01*
Y1577818D01*
X602693D01*
Y1596805D01*
D02*
G37*
%LPD*%
G36*
X563546Y1593508D02*
X563703Y1593497D01*
X563869Y1593477D01*
X564067Y1593456D01*
X564276Y1593414D01*
X564484Y1593372D01*
X564713Y1593320D01*
X564942Y1593258D01*
X565161Y1593185D01*
X565379Y1593091D01*
X565598Y1592977D01*
X565796Y1592862D01*
X565973Y1592716D01*
X565983Y1592706D01*
X566015Y1592685D01*
X566056Y1592633D01*
X566119Y1592571D01*
X566192Y1592498D01*
X566265Y1592394D01*
X566348Y1592279D01*
X566442Y1592154D01*
X566525Y1592008D01*
X566608Y1591852D01*
X566692Y1591675D01*
X566764Y1591488D01*
X566837Y1591290D01*
X566889Y1591071D01*
X566921Y1590842D01*
X566941Y1590602D01*
X565005Y1590529D01*
Y1590540D01*
X564994Y1590561D01*
Y1590602D01*
X564984Y1590644D01*
X564963Y1590706D01*
X564942Y1590779D01*
X564890Y1590936D01*
X564817Y1591102D01*
X564723Y1591279D01*
X564609Y1591446D01*
X564463Y1591581D01*
X564442Y1591592D01*
X564390Y1591633D01*
X564296Y1591685D01*
X564161Y1591748D01*
X563984Y1591810D01*
X563776Y1591862D01*
X563526Y1591904D01*
X563234Y1591915D01*
X563099D01*
X563026Y1591904D01*
X562943Y1591894D01*
X562745Y1591873D01*
X562536Y1591831D01*
X562307Y1591769D01*
X562099Y1591675D01*
X561901Y1591561D01*
X561891Y1591550D01*
X561860Y1591519D01*
X561807Y1591467D01*
X561755Y1591404D01*
X561693Y1591321D01*
X561651Y1591217D01*
X561609Y1591102D01*
X561599Y1590967D01*
Y1590957D01*
Y1590915D01*
X561609Y1590842D01*
X561630Y1590769D01*
X561672Y1590675D01*
X561714Y1590571D01*
X561787Y1590477D01*
X561880Y1590384D01*
X561901Y1590373D01*
X561922Y1590352D01*
X561964Y1590332D01*
X562005Y1590300D01*
X562068Y1590269D01*
X562151Y1590228D01*
X562245Y1590186D01*
X562349Y1590144D01*
X562474Y1590092D01*
X562620Y1590040D01*
X562786Y1589988D01*
X562974Y1589926D01*
X563182Y1589863D01*
X563411Y1589801D01*
X563661Y1589738D01*
X563682D01*
X563724Y1589728D01*
X563797Y1589707D01*
X563890Y1589686D01*
X564015Y1589655D01*
X564140Y1589613D01*
X564296Y1589571D01*
X564453Y1589530D01*
X564796Y1589426D01*
X565140Y1589311D01*
X565307Y1589249D01*
X565473Y1589186D01*
X565619Y1589113D01*
X565754Y1589051D01*
X565765D01*
X565786Y1589030D01*
X565817Y1589009D01*
X565869Y1588988D01*
X565994Y1588905D01*
X566150Y1588801D01*
X566317Y1588655D01*
X566494Y1588488D01*
X566671Y1588291D01*
X566827Y1588072D01*
Y1588061D01*
X566848Y1588041D01*
X566858Y1588009D01*
X566889Y1587957D01*
X566921Y1587895D01*
X566952Y1587822D01*
X566983Y1587739D01*
X567025Y1587645D01*
X567056Y1587541D01*
X567087Y1587426D01*
X567150Y1587166D01*
X567191Y1586864D01*
X567212Y1586541D01*
Y1586530D01*
Y1586510D01*
Y1586458D01*
X567202Y1586406D01*
Y1586333D01*
X567191Y1586239D01*
X567171Y1586145D01*
X567150Y1586041D01*
X567098Y1585802D01*
X567014Y1585541D01*
X566900Y1585270D01*
X566827Y1585125D01*
X566744Y1584989D01*
Y1584979D01*
X566723Y1584958D01*
X566692Y1584916D01*
X566660Y1584875D01*
X566608Y1584812D01*
X566556Y1584739D01*
X566410Y1584583D01*
X566223Y1584417D01*
X566004Y1584229D01*
X565744Y1584062D01*
X565442Y1583917D01*
X565432D01*
X565400Y1583906D01*
X565359Y1583885D01*
X565296Y1583864D01*
X565213Y1583833D01*
X565109Y1583813D01*
X564994Y1583781D01*
X564869Y1583750D01*
X564723Y1583708D01*
X564567Y1583677D01*
X564390Y1583656D01*
X564203Y1583625D01*
X564015Y1583604D01*
X563797Y1583583D01*
X563578Y1583573D01*
X563265D01*
X563172Y1583583D01*
X563047D01*
X562901Y1583594D01*
X562724Y1583615D01*
X562526Y1583646D01*
X562318Y1583677D01*
X562089Y1583719D01*
X561860Y1583781D01*
X561630Y1583844D01*
X561401Y1583927D01*
X561172Y1584021D01*
X560953Y1584135D01*
X560745Y1584260D01*
X560547Y1584406D01*
X560537Y1584417D01*
X560506Y1584448D01*
X560454Y1584500D01*
X560391Y1584562D01*
X560318Y1584656D01*
X560224Y1584760D01*
X560131Y1584885D01*
X560037Y1585031D01*
X559933Y1585197D01*
X559829Y1585375D01*
X559735Y1585583D01*
X559641Y1585802D01*
X559558Y1586041D01*
X559485Y1586291D01*
X559423Y1586572D01*
X559381Y1586864D01*
X561266Y1587051D01*
Y1587041D01*
X561276Y1587010D01*
X561287Y1586958D01*
X561297Y1586895D01*
X561318Y1586812D01*
X561349Y1586728D01*
X561412Y1586520D01*
X561505Y1586291D01*
X561630Y1586051D01*
X561776Y1585833D01*
X561860Y1585739D01*
X561953Y1585645D01*
X561964D01*
X561974Y1585625D01*
X562005Y1585604D01*
X562047Y1585572D01*
X562099Y1585541D01*
X562172Y1585510D01*
X562245Y1585468D01*
X562328Y1585427D01*
X562536Y1585343D01*
X562776Y1585281D01*
X563057Y1585229D01*
X563369Y1585208D01*
X563463D01*
X563526Y1585218D01*
X563609D01*
X563692Y1585229D01*
X563901Y1585260D01*
X564130Y1585302D01*
X564369Y1585375D01*
X564598Y1585468D01*
X564702Y1585531D01*
X564796Y1585604D01*
X564807D01*
X564817Y1585625D01*
X564869Y1585677D01*
X564952Y1585760D01*
X565036Y1585864D01*
X565119Y1585999D01*
X565202Y1586166D01*
X565254Y1586343D01*
X565275Y1586437D01*
Y1586530D01*
Y1586541D01*
Y1586593D01*
X565265Y1586655D01*
X565254Y1586728D01*
X565223Y1586822D01*
X565192Y1586926D01*
X565140Y1587020D01*
X565067Y1587114D01*
X565057Y1587124D01*
X565025Y1587155D01*
X564973Y1587197D01*
X564911Y1587260D01*
X564807Y1587322D01*
X564692Y1587395D01*
X564546Y1587457D01*
X564369Y1587530D01*
X564348Y1587541D01*
X564328D01*
X564296Y1587551D01*
X564255Y1587561D01*
X564192Y1587582D01*
X564130Y1587603D01*
X564046Y1587624D01*
X563953Y1587655D01*
X563838Y1587686D01*
X563713Y1587718D01*
X563567Y1587759D01*
X563411Y1587801D01*
X563234Y1587843D01*
X563036Y1587895D01*
X562818Y1587947D01*
X562797D01*
X562745Y1587968D01*
X562672Y1587988D01*
X562568Y1588020D01*
X562432Y1588051D01*
X562286Y1588103D01*
X562130Y1588155D01*
X561964Y1588207D01*
X561599Y1588353D01*
X561235Y1588509D01*
X561068Y1588603D01*
X560901Y1588697D01*
X560756Y1588790D01*
X560631Y1588895D01*
X560620Y1588905D01*
X560589Y1588936D01*
X560547Y1588978D01*
X560495Y1589040D01*
X560422Y1589113D01*
X560350Y1589207D01*
X560266Y1589311D01*
X560193Y1589436D01*
X560110Y1589571D01*
X560027Y1589717D01*
X559954Y1589884D01*
X559881Y1590051D01*
X559829Y1590228D01*
X559787Y1590425D01*
X559756Y1590623D01*
X559745Y1590831D01*
Y1590842D01*
Y1590863D01*
Y1590904D01*
X559756Y1590957D01*
Y1591019D01*
X559766Y1591102D01*
X559798Y1591279D01*
X559850Y1591488D01*
X559922Y1591727D01*
X560027Y1591967D01*
X560162Y1592206D01*
Y1592217D01*
X560183Y1592237D01*
X560204Y1592269D01*
X560235Y1592310D01*
X560339Y1592425D01*
X560464Y1592571D01*
X560641Y1592727D01*
X560839Y1592883D01*
X561089Y1593039D01*
X561360Y1593175D01*
X561370D01*
X561391Y1593185D01*
X561443Y1593206D01*
X561495Y1593227D01*
X561578Y1593258D01*
X561662Y1593279D01*
X561766Y1593310D01*
X561891Y1593352D01*
X562026Y1593383D01*
X562161Y1593414D01*
X562318Y1593435D01*
X562484Y1593466D01*
X562672Y1593487D01*
X562849Y1593508D01*
X563255Y1593518D01*
X563432D01*
X563546Y1593508D01*
D02*
G37*
G36*
X588780Y1590863D02*
X588853Y1590852D01*
X589030Y1590831D01*
X589227Y1590800D01*
X589446Y1590738D01*
X589665Y1590665D01*
X589873Y1590561D01*
X589884D01*
X589894Y1590550D01*
X589957Y1590498D01*
X590050Y1590425D01*
X590175Y1590332D01*
X590300Y1590196D01*
X590435Y1590040D01*
X590560Y1589853D01*
X590665Y1589644D01*
X590675Y1589624D01*
X590685Y1589592D01*
X590696Y1589561D01*
X590706Y1589509D01*
X590727Y1589447D01*
X590748Y1589384D01*
X590769Y1589301D01*
X590779Y1589196D01*
X590800Y1589092D01*
X590821Y1588978D01*
X590831Y1588842D01*
X590842Y1588707D01*
X590852Y1588551D01*
X590863Y1588374D01*
Y1588197D01*
Y1583750D01*
X589019D01*
Y1587728D01*
Y1587739D01*
Y1587770D01*
Y1587822D01*
Y1587895D01*
X589009Y1587978D01*
Y1588072D01*
X588998Y1588291D01*
X588967Y1588509D01*
X588936Y1588738D01*
X588915Y1588832D01*
X588884Y1588926D01*
X588853Y1589009D01*
X588821Y1589072D01*
X588811Y1589092D01*
X588769Y1589134D01*
X588717Y1589196D01*
X588634Y1589269D01*
X588519Y1589342D01*
X588384Y1589405D01*
X588228Y1589447D01*
X588040Y1589467D01*
X587978D01*
X587905Y1589457D01*
X587801Y1589436D01*
X587697Y1589405D01*
X587572Y1589363D01*
X587447Y1589311D01*
X587311Y1589228D01*
X587301Y1589217D01*
X587259Y1589186D01*
X587197Y1589124D01*
X587124Y1589051D01*
X587040Y1588957D01*
X586957Y1588832D01*
X586884Y1588697D01*
X586822Y1588530D01*
X586811Y1588509D01*
Y1588478D01*
X586801Y1588447D01*
X586791Y1588395D01*
X586780Y1588332D01*
X586759Y1588270D01*
X586749Y1588186D01*
X586739Y1588093D01*
X586718Y1587978D01*
X586707Y1587863D01*
X586697Y1587739D01*
X586687Y1587593D01*
Y1587437D01*
X586676Y1587270D01*
Y1587093D01*
Y1583750D01*
X584833D01*
Y1587561D01*
Y1587572D01*
Y1587603D01*
Y1587655D01*
Y1587728D01*
Y1587811D01*
Y1587905D01*
X584822Y1588114D01*
X584812Y1588332D01*
X584791Y1588551D01*
X584781Y1588645D01*
X584760Y1588738D01*
X584749Y1588811D01*
X584729Y1588874D01*
Y1588884D01*
X584708Y1588926D01*
X584687Y1588978D01*
X584656Y1589040D01*
X584562Y1589186D01*
X584500Y1589259D01*
X584427Y1589321D01*
X584416Y1589332D01*
X584385Y1589342D01*
X584343Y1589363D01*
X584281Y1589394D01*
X584198Y1589426D01*
X584104Y1589447D01*
X583989Y1589457D01*
X583864Y1589467D01*
X583791D01*
X583708Y1589457D01*
X583604Y1589436D01*
X583489Y1589405D01*
X583364Y1589363D01*
X583229Y1589311D01*
X583094Y1589228D01*
X583083Y1589217D01*
X583042Y1589186D01*
X582979Y1589134D01*
X582906Y1589061D01*
X582833Y1588967D01*
X582750Y1588853D01*
X582677Y1588717D01*
X582615Y1588561D01*
X582604Y1588540D01*
Y1588520D01*
X582594Y1588478D01*
X582583Y1588436D01*
X582573Y1588374D01*
X582552Y1588301D01*
X582542Y1588228D01*
X582531Y1588134D01*
X582510Y1588030D01*
X582500Y1587905D01*
X582490Y1587780D01*
X582479Y1587634D01*
Y1587478D01*
X582469Y1587312D01*
Y1587135D01*
Y1583750D01*
X580625D01*
Y1590717D01*
X582323D01*
Y1589759D01*
X582333Y1589769D01*
X582365Y1589811D01*
X582417Y1589863D01*
X582490Y1589936D01*
X582573Y1590019D01*
X582677Y1590113D01*
X582802Y1590217D01*
X582937Y1590321D01*
X583083Y1590425D01*
X583250Y1590519D01*
X583427Y1590613D01*
X583614Y1590696D01*
X583823Y1590769D01*
X584031Y1590821D01*
X584260Y1590863D01*
X584489Y1590873D01*
X584604D01*
X584656Y1590863D01*
X584729D01*
X584885Y1590842D01*
X585062Y1590800D01*
X585260Y1590759D01*
X585458Y1590686D01*
X585645Y1590592D01*
X585656D01*
X585666Y1590582D01*
X585728Y1590540D01*
X585822Y1590477D01*
X585937Y1590384D01*
X586062Y1590269D01*
X586197Y1590123D01*
X586332Y1589957D01*
X586457Y1589759D01*
X586468Y1589769D01*
X586478Y1589780D01*
X586499Y1589811D01*
X586541Y1589853D01*
X586634Y1589946D01*
X586749Y1590071D01*
X586905Y1590207D01*
X587072Y1590352D01*
X587249Y1590477D01*
X587447Y1590592D01*
X587457D01*
X587467Y1590602D01*
X587499Y1590623D01*
X587540Y1590634D01*
X587645Y1590686D01*
X587790Y1590738D01*
X587957Y1590779D01*
X588155Y1590831D01*
X588363Y1590863D01*
X588582Y1590873D01*
X588707D01*
X588780Y1590863D01*
D02*
G37*
G36*
X596642D02*
X596736D01*
X596840Y1590842D01*
X596955Y1590821D01*
X597090Y1590790D01*
X597246Y1590759D01*
X597402Y1590706D01*
X597569Y1590644D01*
X597736Y1590561D01*
X597913Y1590467D01*
X598090Y1590363D01*
X598256Y1590228D01*
X598423Y1590082D01*
X598590Y1589915D01*
X598600Y1589905D01*
X598631Y1589873D01*
X598673Y1589821D01*
X598725Y1589738D01*
X598787Y1589644D01*
X598860Y1589530D01*
X598933Y1589384D01*
X599017Y1589228D01*
X599100Y1589051D01*
X599173Y1588853D01*
X599246Y1588634D01*
X599308Y1588395D01*
X599360Y1588145D01*
X599412Y1587874D01*
X599433Y1587582D01*
X599444Y1587270D01*
Y1587249D01*
Y1587197D01*
X599433Y1587103D01*
Y1586978D01*
X599423Y1586832D01*
X599402Y1586666D01*
X599371Y1586478D01*
X599339Y1586270D01*
X599287Y1586062D01*
X599235Y1585833D01*
X599162Y1585614D01*
X599079Y1585385D01*
X598985Y1585166D01*
X598871Y1584948D01*
X598736Y1584739D01*
X598590Y1584552D01*
X598579Y1584541D01*
X598548Y1584510D01*
X598506Y1584469D01*
X598433Y1584406D01*
X598350Y1584333D01*
X598256Y1584250D01*
X598142Y1584167D01*
X598007Y1584073D01*
X597871Y1583979D01*
X597705Y1583896D01*
X597538Y1583813D01*
X597350Y1583740D01*
X597163Y1583687D01*
X596955Y1583635D01*
X596746Y1583604D01*
X596517Y1583594D01*
X596423D01*
X596309Y1583604D01*
X596163Y1583625D01*
X596007Y1583646D01*
X595830Y1583687D01*
X595643Y1583750D01*
X595466Y1583823D01*
X595445Y1583833D01*
X595382Y1583864D01*
X595288Y1583927D01*
X595163Y1584010D01*
X595018Y1584115D01*
X594851Y1584250D01*
X594674Y1584417D01*
X594487Y1584604D01*
Y1581105D01*
X592643D01*
Y1590717D01*
X594362D01*
Y1589696D01*
X594382Y1589707D01*
X594424Y1589769D01*
X594497Y1589873D01*
X594601Y1589988D01*
X594726Y1590123D01*
X594882Y1590269D01*
X595059Y1590415D01*
X595257Y1590540D01*
X595268D01*
X595288Y1590550D01*
X595320Y1590571D01*
X595361Y1590592D01*
X595413Y1590613D01*
X595476Y1590644D01*
X595632Y1590706D01*
X595820Y1590769D01*
X596038Y1590821D01*
X596278Y1590863D01*
X596528Y1590873D01*
X596580D01*
X596642Y1590863D01*
D02*
G37*
G36*
X576325D02*
X576450D01*
X576575Y1590852D01*
X576720Y1590831D01*
X577022Y1590800D01*
X577324Y1590748D01*
X577616Y1590675D01*
X577741Y1590623D01*
X577866Y1590571D01*
X577876D01*
X577897Y1590561D01*
X577928Y1590540D01*
X577960Y1590519D01*
X578074Y1590457D01*
X578199Y1590373D01*
X578345Y1590259D01*
X578480Y1590134D01*
X578616Y1589988D01*
X578720Y1589832D01*
X578730Y1589811D01*
X578741Y1589780D01*
X578761Y1589749D01*
X578782Y1589696D01*
X578803Y1589624D01*
X578824Y1589551D01*
X578845Y1589457D01*
X578866Y1589353D01*
X578886Y1589238D01*
X578907Y1589103D01*
X578928Y1588947D01*
X578949Y1588780D01*
X578959Y1588603D01*
X578970Y1588405D01*
Y1588186D01*
X578938Y1586031D01*
Y1586020D01*
Y1585989D01*
Y1585947D01*
Y1585885D01*
Y1585802D01*
Y1585718D01*
X578949Y1585520D01*
X578959Y1585302D01*
X578970Y1585073D01*
X578991Y1584864D01*
X579011Y1584760D01*
X579022Y1584677D01*
Y1584656D01*
X579043Y1584604D01*
X579063Y1584510D01*
X579095Y1584396D01*
X579136Y1584260D01*
X579199Y1584104D01*
X579272Y1583927D01*
X579355Y1583750D01*
X577533D01*
Y1583760D01*
X577522Y1583781D01*
X577501Y1583823D01*
X577481Y1583885D01*
X577460Y1583958D01*
X577418Y1584052D01*
X577387Y1584167D01*
X577345Y1584292D01*
Y1584302D01*
X577335Y1584323D01*
X577324Y1584385D01*
X577303Y1584458D01*
X577293Y1584489D01*
X577283Y1584510D01*
X577262Y1584489D01*
X577199Y1584437D01*
X577106Y1584354D01*
X576981Y1584250D01*
X576835Y1584146D01*
X576658Y1584031D01*
X576470Y1583917D01*
X576273Y1583823D01*
X576262D01*
X576252Y1583813D01*
X576220Y1583802D01*
X576179Y1583792D01*
X576075Y1583750D01*
X575929Y1583708D01*
X575762Y1583667D01*
X575564Y1583625D01*
X575356Y1583604D01*
X575127Y1583594D01*
X575023D01*
X574950Y1583604D01*
X574856Y1583615D01*
X574752Y1583625D01*
X574637Y1583646D01*
X574512Y1583667D01*
X574242Y1583729D01*
X573960Y1583833D01*
X573815Y1583906D01*
X573679Y1583979D01*
X573554Y1584062D01*
X573429Y1584167D01*
X573419Y1584177D01*
X573398Y1584198D01*
X573377Y1584229D01*
X573336Y1584271D01*
X573284Y1584333D01*
X573232Y1584396D01*
X573180Y1584479D01*
X573127Y1584573D01*
X573065Y1584677D01*
X573013Y1584781D01*
X572909Y1585041D01*
X572867Y1585177D01*
X572846Y1585323D01*
X572825Y1585479D01*
X572815Y1585645D01*
Y1585656D01*
Y1585677D01*
Y1585708D01*
Y1585750D01*
X572825Y1585854D01*
X572846Y1585999D01*
X572888Y1586166D01*
X572930Y1586343D01*
X573003Y1586520D01*
X573096Y1586697D01*
Y1586708D01*
X573107Y1586718D01*
X573148Y1586770D01*
X573211Y1586853D01*
X573304Y1586958D01*
X573409Y1587072D01*
X573544Y1587187D01*
X573700Y1587301D01*
X573877Y1587395D01*
X573888D01*
X573898Y1587405D01*
X573929Y1587416D01*
X573971Y1587437D01*
X574023Y1587457D01*
X574086Y1587489D01*
X574169Y1587509D01*
X574252Y1587541D01*
X574346Y1587572D01*
X574460Y1587614D01*
X574585Y1587645D01*
X574710Y1587686D01*
X574856Y1587718D01*
X575012Y1587759D01*
X575169Y1587801D01*
X575346Y1587832D01*
X575356D01*
X575398Y1587843D01*
X575471Y1587853D01*
X575554Y1587874D01*
X575658Y1587895D01*
X575783Y1587916D01*
X575918Y1587947D01*
X576064Y1587978D01*
X576356Y1588051D01*
X576658Y1588124D01*
X576793Y1588165D01*
X576928Y1588207D01*
X577043Y1588249D01*
X577147Y1588291D01*
Y1588468D01*
Y1588478D01*
Y1588488D01*
Y1588561D01*
X577137Y1588655D01*
X577116Y1588770D01*
X577085Y1588895D01*
X577033Y1589019D01*
X576970Y1589144D01*
X576876Y1589238D01*
X576866Y1589249D01*
X576824Y1589269D01*
X576752Y1589311D01*
X576658Y1589353D01*
X576522Y1589394D01*
X576345Y1589436D01*
X576241Y1589447D01*
X576137Y1589457D01*
X576012Y1589467D01*
X575793D01*
X575700Y1589457D01*
X575596Y1589447D01*
X575471Y1589415D01*
X575335Y1589384D01*
X575210Y1589332D01*
X575096Y1589269D01*
X575085Y1589259D01*
X575054Y1589228D01*
X575002Y1589186D01*
X574939Y1589113D01*
X574867Y1589019D01*
X574794Y1588895D01*
X574721Y1588749D01*
X574658Y1588582D01*
X573003Y1588884D01*
Y1588895D01*
X573013Y1588926D01*
X573034Y1588978D01*
X573055Y1589051D01*
X573086Y1589134D01*
X573127Y1589228D01*
X573232Y1589447D01*
X573367Y1589696D01*
X573534Y1589946D01*
X573731Y1590175D01*
X573846Y1590290D01*
X573971Y1590384D01*
X573981Y1590394D01*
X574002Y1590405D01*
X574044Y1590425D01*
X574096Y1590457D01*
X574169Y1590498D01*
X574263Y1590540D01*
X574367Y1590582D01*
X574481Y1590634D01*
X574627Y1590675D01*
X574773Y1590717D01*
X574939Y1590759D01*
X575127Y1590800D01*
X575325Y1590831D01*
X575544Y1590852D01*
X575773Y1590873D01*
X576231D01*
X576325Y1590863D01*
D02*
G37*
G36*
X558288Y1591738D02*
X553632D01*
Y1589457D01*
X557652D01*
Y1587832D01*
X553632D01*
Y1583750D01*
X551695D01*
Y1593362D01*
X558288D01*
Y1591738D01*
D02*
G37*
G36*
X546457Y1593352D02*
X546603D01*
X546770Y1593341D01*
X546936Y1593331D01*
X547311Y1593300D01*
X547676Y1593248D01*
X547853Y1593227D01*
X548030Y1593185D01*
X548186Y1593143D01*
X548321Y1593102D01*
X548332D01*
X548353Y1593091D01*
X548384Y1593071D01*
X548436Y1593050D01*
X548498Y1593018D01*
X548561Y1592987D01*
X548727Y1592894D01*
X548904Y1592758D01*
X549081Y1592602D01*
X549269Y1592404D01*
X549436Y1592175D01*
Y1592164D01*
X549456Y1592144D01*
X549477Y1592112D01*
X549498Y1592060D01*
X549540Y1591998D01*
X549571Y1591925D01*
X549613Y1591831D01*
X549654Y1591738D01*
X549727Y1591519D01*
X549800Y1591259D01*
X549842Y1590977D01*
X549863Y1590665D01*
Y1590654D01*
Y1590613D01*
Y1590561D01*
X549852Y1590488D01*
X549842Y1590394D01*
X549831Y1590290D01*
X549810Y1590165D01*
X549779Y1590040D01*
X549706Y1589749D01*
X549654Y1589603D01*
X549592Y1589457D01*
X549519Y1589301D01*
X549436Y1589155D01*
X549342Y1589009D01*
X549227Y1588874D01*
X549217Y1588863D01*
X549196Y1588842D01*
X549165Y1588811D01*
X549113Y1588759D01*
X549040Y1588707D01*
X548956Y1588645D01*
X548863Y1588572D01*
X548748Y1588499D01*
X548623Y1588416D01*
X548488Y1588343D01*
X548332Y1588270D01*
X548155Y1588197D01*
X547967Y1588134D01*
X547769Y1588072D01*
X547551Y1588020D01*
X547322Y1587978D01*
X547332D01*
X547353Y1587957D01*
X547384Y1587947D01*
X547426Y1587916D01*
X547540Y1587843D01*
X547686Y1587739D01*
X547853Y1587624D01*
X548030Y1587489D01*
X548207Y1587332D01*
X548363Y1587176D01*
X548384Y1587155D01*
X548405Y1587124D01*
X548436Y1587093D01*
X548478Y1587041D01*
X548530Y1586978D01*
X548592Y1586905D01*
X548655Y1586822D01*
X548727Y1586718D01*
X548811Y1586603D01*
X548904Y1586478D01*
X548998Y1586333D01*
X549102Y1586176D01*
X549217Y1585999D01*
X549342Y1585822D01*
X549467Y1585614D01*
X550644Y1583750D01*
X548321D01*
X546915Y1585843D01*
X546905Y1585854D01*
X546884Y1585895D01*
X546842Y1585947D01*
X546790Y1586020D01*
X546738Y1586114D01*
X546665Y1586208D01*
X546509Y1586437D01*
X546332Y1586676D01*
X546166Y1586905D01*
X546082Y1587010D01*
X546009Y1587103D01*
X545947Y1587187D01*
X545884Y1587249D01*
X545874Y1587260D01*
X545843Y1587301D01*
X545780Y1587343D01*
X545707Y1587405D01*
X545624Y1587478D01*
X545520Y1587541D01*
X545416Y1587603D01*
X545301Y1587645D01*
X545291Y1587655D01*
X545239Y1587666D01*
X545166Y1587686D01*
X545062Y1587707D01*
X544926Y1587728D01*
X544760Y1587739D01*
X544562Y1587759D01*
X543937D01*
Y1583750D01*
X542000D01*
Y1593362D01*
X546332D01*
X546457Y1593352D01*
D02*
G37*
G36*
X570764Y1590717D02*
X572024D01*
Y1589249D01*
X570764D01*
Y1586437D01*
Y1586426D01*
Y1586395D01*
Y1586353D01*
Y1586301D01*
Y1586239D01*
Y1586156D01*
Y1585989D01*
X570774Y1585822D01*
Y1585656D01*
X570784Y1585583D01*
Y1585520D01*
X570795Y1585468D01*
Y1585437D01*
Y1585427D01*
X570805Y1585416D01*
X570826Y1585354D01*
X570878Y1585281D01*
X570951Y1585208D01*
X570961D01*
X570972Y1585197D01*
X571003Y1585187D01*
X571045Y1585166D01*
X571138Y1585135D01*
X571263Y1585125D01*
X571315D01*
X571367Y1585135D01*
X571451Y1585146D01*
X571555Y1585166D01*
X571690Y1585197D01*
X571836Y1585239D01*
X572003Y1585291D01*
X572169Y1583864D01*
X572159D01*
X572138Y1583854D01*
X572107Y1583844D01*
X572055Y1583823D01*
X571992Y1583802D01*
X571919Y1583781D01*
X571836Y1583750D01*
X571742Y1583729D01*
X571534Y1583677D01*
X571284Y1583635D01*
X571003Y1583604D01*
X570711Y1583594D01*
X570628D01*
X570534Y1583604D01*
X570409Y1583615D01*
X570274Y1583635D01*
X570128Y1583667D01*
X569972Y1583708D01*
X569816Y1583760D01*
X569795Y1583771D01*
X569753Y1583792D01*
X569680Y1583823D01*
X569597Y1583875D01*
X569503Y1583937D01*
X569399Y1584010D01*
X569316Y1584094D01*
X569233Y1584187D01*
X569222Y1584198D01*
X569201Y1584240D01*
X569170Y1584302D01*
X569128Y1584375D01*
X569087Y1584479D01*
X569045Y1584604D01*
X569003Y1584750D01*
X568972Y1584906D01*
Y1584927D01*
X568962Y1584968D01*
Y1585010D01*
X568951Y1585062D01*
Y1585125D01*
Y1585187D01*
X568941Y1585270D01*
Y1585364D01*
X568931Y1585468D01*
Y1585593D01*
X568920Y1585729D01*
Y1585874D01*
Y1586031D01*
Y1586208D01*
Y1589249D01*
X568077D01*
Y1590717D01*
X568920D01*
Y1592102D01*
X570764Y1593185D01*
Y1590717D01*
D02*
G37*
G36*
X546457Y1566500D02*
X544801D01*
X542000Y1573467D01*
X543937D01*
X545249Y1569905D01*
X545624Y1568718D01*
Y1568729D01*
X545634Y1568739D01*
X545645Y1568791D01*
X545676Y1568874D01*
X545707Y1568968D01*
X545739Y1569062D01*
X545770Y1569166D01*
X545791Y1569249D01*
X545812Y1569312D01*
Y1569322D01*
X545832Y1569364D01*
X545843Y1569426D01*
X545874Y1569499D01*
X545905Y1569593D01*
X545937Y1569687D01*
X546009Y1569905D01*
X547332Y1573467D01*
X549227D01*
X546457Y1566500D01*
D02*
G37*
G36*
X559673D02*
X557829D01*
Y1568343D01*
X559673D01*
Y1566500D01*
D02*
G37*
G36*
X554684D02*
X552841D01*
Y1573425D01*
X552831Y1573415D01*
X552799Y1573384D01*
X552737Y1573332D01*
X552664Y1573269D01*
X552570Y1573196D01*
X552445Y1573103D01*
X552320Y1572998D01*
X552164Y1572894D01*
X551997Y1572780D01*
X551820Y1572665D01*
X551623Y1572551D01*
X551414Y1572436D01*
X551195Y1572321D01*
X550956Y1572217D01*
X550717Y1572124D01*
X550467Y1572030D01*
Y1573707D01*
X550477D01*
X550498Y1573717D01*
X550540Y1573727D01*
X550592Y1573748D01*
X550664Y1573779D01*
X550737Y1573811D01*
X550831Y1573852D01*
X550935Y1573904D01*
X551164Y1574019D01*
X551425Y1574175D01*
X551716Y1574363D01*
X552029Y1574592D01*
X552039Y1574602D01*
X552070Y1574623D01*
X552112Y1574654D01*
X552164Y1574706D01*
X552237Y1574769D01*
X552310Y1574852D01*
X552393Y1574935D01*
X552487Y1575040D01*
X552685Y1575269D01*
X552872Y1575529D01*
X553049Y1575820D01*
X553122Y1575977D01*
X553185Y1576143D01*
X554684D01*
Y1566500D01*
D02*
G37*
G36*
X564411Y1576133D02*
X564505D01*
X564619Y1576112D01*
X564755Y1576091D01*
X564911Y1576060D01*
X565077Y1576018D01*
X565244Y1575966D01*
X565421Y1575904D01*
X565608Y1575820D01*
X565786Y1575727D01*
X565963Y1575612D01*
X566140Y1575477D01*
X566306Y1575321D01*
X566463Y1575144D01*
X566473Y1575133D01*
X566504Y1575092D01*
X566546Y1575019D01*
X566608Y1574915D01*
X566681Y1574789D01*
X566764Y1574623D01*
X566848Y1574435D01*
X566931Y1574206D01*
X567014Y1573956D01*
X567108Y1573665D01*
X567181Y1573342D01*
X567254Y1572988D01*
X567316Y1572603D01*
X567358Y1572176D01*
X567389Y1571717D01*
X567400Y1571228D01*
Y1571217D01*
Y1571197D01*
Y1571155D01*
Y1571113D01*
Y1571040D01*
X567389Y1570968D01*
Y1570884D01*
Y1570780D01*
X567369Y1570562D01*
X567348Y1570301D01*
X567316Y1570020D01*
X567285Y1569718D01*
X567233Y1569395D01*
X567171Y1569072D01*
X567087Y1568739D01*
X567004Y1568416D01*
X566889Y1568114D01*
X566764Y1567812D01*
X566619Y1567541D01*
X566452Y1567302D01*
X566442Y1567292D01*
X566421Y1567260D01*
X566369Y1567208D01*
X566306Y1567146D01*
X566233Y1567073D01*
X566129Y1566989D01*
X566015Y1566906D01*
X565890Y1566812D01*
X565744Y1566719D01*
X565577Y1566635D01*
X565400Y1566552D01*
X565202Y1566479D01*
X564994Y1566417D01*
X564765Y1566365D01*
X564525Y1566333D01*
X564276Y1566323D01*
X564213D01*
X564140Y1566333D01*
X564046Y1566344D01*
X563922Y1566354D01*
X563786Y1566375D01*
X563630Y1566417D01*
X563463Y1566458D01*
X563286Y1566510D01*
X563109Y1566583D01*
X562922Y1566677D01*
X562734Y1566771D01*
X562547Y1566896D01*
X562359Y1567041D01*
X562182Y1567208D01*
X562016Y1567396D01*
X562005Y1567406D01*
X561984Y1567448D01*
X561932Y1567510D01*
X561880Y1567604D01*
X561818Y1567729D01*
X561745Y1567885D01*
X561672Y1568073D01*
X561589Y1568281D01*
X561505Y1568531D01*
X561432Y1568812D01*
X561360Y1569124D01*
X561297Y1569478D01*
X561245Y1569864D01*
X561203Y1570291D01*
X561172Y1570749D01*
X561162Y1571249D01*
Y1571259D01*
Y1571280D01*
Y1571322D01*
Y1571363D01*
Y1571436D01*
X561172Y1571509D01*
Y1571592D01*
Y1571686D01*
X561193Y1571915D01*
X561214Y1572165D01*
X561245Y1572446D01*
X561276Y1572748D01*
X561328Y1573071D01*
X561391Y1573394D01*
X561464Y1573717D01*
X561558Y1574040D01*
X561662Y1574352D01*
X561787Y1574644D01*
X561932Y1574915D01*
X562099Y1575154D01*
X562109Y1575164D01*
X562141Y1575196D01*
X562182Y1575248D01*
X562245Y1575310D01*
X562328Y1575383D01*
X562422Y1575466D01*
X562536Y1575560D01*
X562661Y1575654D01*
X562807Y1575737D01*
X562974Y1575831D01*
X563151Y1575914D01*
X563349Y1575987D01*
X563557Y1576050D01*
X563786Y1576102D01*
X564026Y1576133D01*
X564276Y1576143D01*
X564338D01*
X564411Y1576133D01*
D02*
G37*
%LPC*%
G36*
X596017Y1589415D02*
X595955D01*
X595903Y1589405D01*
X595851Y1589394D01*
X595778Y1589384D01*
X595622Y1589353D01*
X595445Y1589290D01*
X595257Y1589196D01*
X595163Y1589134D01*
X595070Y1589061D01*
X594976Y1588978D01*
X594893Y1588884D01*
Y1588874D01*
X594872Y1588863D01*
X594851Y1588832D01*
X594820Y1588790D01*
X594789Y1588728D01*
X594757Y1588665D01*
X594716Y1588582D01*
X594674Y1588499D01*
X594632Y1588395D01*
X594591Y1588280D01*
X594559Y1588155D01*
X594528Y1588020D01*
X594497Y1587863D01*
X594476Y1587707D01*
X594466Y1587530D01*
X594455Y1587343D01*
Y1587332D01*
Y1587291D01*
Y1587228D01*
X594466Y1587155D01*
Y1587051D01*
X594476Y1586937D01*
X594497Y1586822D01*
X594518Y1586687D01*
X594570Y1586406D01*
X594653Y1586114D01*
X594768Y1585843D01*
X594830Y1585718D01*
X594913Y1585604D01*
X594924Y1585593D01*
X594934Y1585583D01*
X594997Y1585520D01*
X595101Y1585427D01*
X595236Y1585333D01*
X595403Y1585229D01*
X595590Y1585135D01*
X595820Y1585073D01*
X595934Y1585062D01*
X596059Y1585052D01*
X596121D01*
X596163Y1585062D01*
X596278Y1585083D01*
X596434Y1585114D01*
X596601Y1585177D01*
X596778Y1585270D01*
X596861Y1585323D01*
X596955Y1585395D01*
X597038Y1585468D01*
X597121Y1585562D01*
X597132Y1585572D01*
X597142Y1585583D01*
X597163Y1585614D01*
X597194Y1585656D01*
X597225Y1585718D01*
X597257Y1585781D01*
X597298Y1585864D01*
X597340Y1585968D01*
X597382Y1586072D01*
X597423Y1586197D01*
X597454Y1586333D01*
X597486Y1586489D01*
X597517Y1586655D01*
X597538Y1586843D01*
X597559Y1587041D01*
Y1587249D01*
Y1587260D01*
Y1587301D01*
Y1587353D01*
X597548Y1587426D01*
Y1587520D01*
X597538Y1587624D01*
X597517Y1587739D01*
X597507Y1587863D01*
X597454Y1588124D01*
X597371Y1588395D01*
X597257Y1588655D01*
X597194Y1588770D01*
X597111Y1588874D01*
Y1588884D01*
X597090Y1588895D01*
X597028Y1588957D01*
X596934Y1589040D01*
X596809Y1589144D01*
X596653Y1589249D01*
X596465Y1589332D01*
X596257Y1589394D01*
X596142Y1589405D01*
X596017Y1589415D01*
D02*
G37*
G36*
X577147Y1587093D02*
X577126Y1587083D01*
X577074Y1587072D01*
X576991Y1587041D01*
X576866Y1587010D01*
X576710Y1586968D01*
X576512Y1586916D01*
X576283Y1586864D01*
X576012Y1586801D01*
X576002D01*
X575981Y1586791D01*
X575939D01*
X575887Y1586770D01*
X575762Y1586739D01*
X575606Y1586708D01*
X575439Y1586655D01*
X575273Y1586603D01*
X575127Y1586551D01*
X575064Y1586520D01*
X575012Y1586489D01*
X575002Y1586478D01*
X574960Y1586447D01*
X574898Y1586385D01*
X574835Y1586312D01*
X574773Y1586218D01*
X574710Y1586104D01*
X574669Y1585979D01*
X574658Y1585843D01*
Y1585822D01*
Y1585781D01*
X574669Y1585708D01*
X574689Y1585614D01*
X574731Y1585510D01*
X574773Y1585395D01*
X574846Y1585291D01*
X574939Y1585177D01*
X574950Y1585166D01*
X574991Y1585135D01*
X575054Y1585083D01*
X575137Y1585041D01*
X575252Y1584989D01*
X575377Y1584937D01*
X575523Y1584906D01*
X575679Y1584895D01*
X575700D01*
X575762Y1584906D01*
X575856Y1584916D01*
X575981Y1584937D01*
X576127Y1584979D01*
X576293Y1585031D01*
X576460Y1585114D01*
X576627Y1585218D01*
X576637Y1585229D01*
X576679Y1585260D01*
X576741Y1585312D01*
X576804Y1585385D01*
X576887Y1585479D01*
X576960Y1585583D01*
X577022Y1585697D01*
X577074Y1585822D01*
Y1585833D01*
X577085Y1585874D01*
X577095Y1585937D01*
X577116Y1586020D01*
X577126Y1586145D01*
X577137Y1586301D01*
X577147Y1586489D01*
Y1586718D01*
Y1587093D01*
D02*
G37*
G36*
X546020Y1591738D02*
X543937D01*
Y1589290D01*
X545707D01*
X545832Y1589301D01*
X546114D01*
X546415Y1589321D01*
X546697Y1589342D01*
X546822Y1589353D01*
X546936Y1589363D01*
X547040Y1589384D01*
X547113Y1589405D01*
X547134Y1589415D01*
X547176Y1589426D01*
X547238Y1589457D01*
X547311Y1589498D01*
X547405Y1589551D01*
X547499Y1589624D01*
X547582Y1589707D01*
X547665Y1589811D01*
X547676Y1589821D01*
X547696Y1589863D01*
X547728Y1589926D01*
X547769Y1590009D01*
X547801Y1590113D01*
X547832Y1590238D01*
X547853Y1590384D01*
X547863Y1590540D01*
Y1590550D01*
Y1590561D01*
Y1590623D01*
X547853Y1590706D01*
X547832Y1590821D01*
X547801Y1590946D01*
X547748Y1591071D01*
X547686Y1591196D01*
X547603Y1591321D01*
X547592Y1591331D01*
X547551Y1591373D01*
X547499Y1591425D01*
X547415Y1591477D01*
X547311Y1591550D01*
X547186Y1591602D01*
X547030Y1591654D01*
X546863Y1591696D01*
X546853D01*
X546811Y1591706D01*
X546728D01*
X546676Y1591717D01*
X546520D01*
X546415Y1591727D01*
X546166D01*
X546020Y1591738D01*
D02*
G37*
G36*
X564276Y1574612D02*
X564224D01*
X564161Y1574602D01*
X564078Y1574581D01*
X563984Y1574560D01*
X563880Y1574519D01*
X563786Y1574467D01*
X563682Y1574394D01*
X563671Y1574383D01*
X563640Y1574352D01*
X563588Y1574300D01*
X563536Y1574217D01*
X563474Y1574113D01*
X563401Y1573988D01*
X563338Y1573821D01*
X563276Y1573634D01*
Y1573623D01*
X563265Y1573602D01*
X563255Y1573561D01*
X563245Y1573498D01*
X563234Y1573415D01*
X563213Y1573321D01*
X563203Y1573196D01*
X563182Y1573061D01*
X563161Y1572905D01*
X563151Y1572728D01*
X563130Y1572530D01*
X563120Y1572311D01*
X563109Y1572082D01*
X563099Y1571811D01*
X563088Y1571530D01*
Y1571228D01*
Y1571207D01*
Y1571155D01*
Y1571072D01*
Y1570957D01*
X563099Y1570811D01*
Y1570655D01*
Y1570489D01*
X563109Y1570301D01*
X563130Y1569916D01*
X563161Y1569530D01*
X563182Y1569343D01*
X563203Y1569176D01*
X563224Y1569031D01*
X563255Y1568895D01*
Y1568885D01*
X563265Y1568864D01*
X563276Y1568833D01*
X563286Y1568791D01*
X563317Y1568687D01*
X563369Y1568562D01*
X563432Y1568416D01*
X563505Y1568281D01*
X563588Y1568156D01*
X563682Y1568062D01*
X563692Y1568052D01*
X563724Y1568031D01*
X563786Y1568000D01*
X563859Y1567958D01*
X563942Y1567916D01*
X564046Y1567885D01*
X564151Y1567864D01*
X564276Y1567854D01*
X564328D01*
X564390Y1567864D01*
X564473Y1567885D01*
X564567Y1567906D01*
X564671Y1567937D01*
X564765Y1567989D01*
X564869Y1568062D01*
X564879Y1568073D01*
X564911Y1568104D01*
X564963Y1568156D01*
X565015Y1568239D01*
X565088Y1568343D01*
X565150Y1568468D01*
X565213Y1568635D01*
X565275Y1568822D01*
Y1568833D01*
X565286Y1568854D01*
X565296Y1568895D01*
X565307Y1568958D01*
X565317Y1569041D01*
X565338Y1569135D01*
X565359Y1569249D01*
X565379Y1569385D01*
X565390Y1569541D01*
X565411Y1569718D01*
X565432Y1569916D01*
X565442Y1570134D01*
X565452Y1570374D01*
X565463Y1570634D01*
X565473Y1570926D01*
Y1571228D01*
Y1571249D01*
Y1571301D01*
Y1571384D01*
Y1571499D01*
Y1571634D01*
X565463Y1571801D01*
Y1571967D01*
X565452Y1572155D01*
X565432Y1572540D01*
X565400Y1572915D01*
X565379Y1573103D01*
X565359Y1573269D01*
X565327Y1573415D01*
X565296Y1573550D01*
Y1573561D01*
X565286Y1573582D01*
X565275Y1573613D01*
X565265Y1573654D01*
X565234Y1573759D01*
X565182Y1573894D01*
X565119Y1574040D01*
X565046Y1574175D01*
X564963Y1574300D01*
X564869Y1574394D01*
X564859Y1574404D01*
X564827Y1574425D01*
X564765Y1574467D01*
X564702Y1574508D01*
X564609Y1574540D01*
X564505Y1574581D01*
X564400Y1574602D01*
X564276Y1574612D01*
D02*
G37*
G36*
X596250Y1523848D02*
X594299Y1523460D01*
X592645Y1522355D01*
X591540Y1520701D01*
X591152Y1518750D01*
X591540Y1516799D01*
X592645Y1515145D01*
X594000Y1514240D01*
Y1505000D01*
X605000D01*
Y1516000D01*
X602459D01*
X602326Y1516670D01*
X602061Y1517068D01*
X601663Y1517663D01*
X601663Y1517663D01*
X601220Y1518106D01*
X601348Y1518750D01*
X600960Y1520701D01*
X599855Y1522355D01*
X598201Y1523460D01*
X596250Y1523848D01*
D02*
G37*
G36*
X482300Y1380750D02*
X472300D01*
Y1354750D01*
X482300D01*
Y1380750D01*
D02*
G37*
G36*
X489750Y1353348D02*
X487799Y1352960D01*
X486145Y1351855D01*
X485040Y1350201D01*
X484652Y1348250D01*
X485040Y1346299D01*
X486145Y1344645D01*
X487799Y1343540D01*
X489750Y1343152D01*
X491701Y1343540D01*
X493355Y1344645D01*
X494460Y1346299D01*
X494848Y1348250D01*
X494460Y1350201D01*
X493355Y1351855D01*
X491701Y1352960D01*
X489750Y1353348D01*
D02*
G37*
%LPD*%
D10*
X502000Y1571750D02*
G03*
X510750Y1580500I0J8750D01*
G01*
X490000Y1582000D02*
X501250D01*
X472000D02*
X490000D01*
D11*
X575500Y1337000D02*
D03*
Y1327500D02*
D03*
Y1318000D02*
D03*
X599500D02*
D03*
Y1337000D02*
D03*
D12*
X580000Y1572500D02*
D03*
X595000D02*
D03*
D13*
X515400Y1367750D02*
D03*
X502700D02*
D03*
X490000D02*
D03*
X477300D02*
D03*
X464600D02*
D03*
X515400Y1322250D02*
D03*
X502700D02*
D03*
X490000D02*
D03*
X477300D02*
D03*
X464600D02*
D03*
D14*
X576000Y1478000D02*
D03*
Y1456000D02*
D03*
X592000D02*
D03*
Y1478000D02*
D03*
D15*
X545000Y1461500D02*
D03*
Y1466500D02*
D03*
Y1471500D02*
D03*
Y1476500D02*
D03*
Y1481500D02*
D03*
Y1486500D02*
D03*
Y1491500D02*
D03*
Y1496500D02*
D03*
Y1501500D02*
D03*
Y1506500D02*
D03*
Y1511500D02*
D03*
Y1516500D02*
D03*
X474000D02*
D03*
Y1511500D02*
D03*
Y1506500D02*
D03*
Y1501500D02*
D03*
Y1496500D02*
D03*
Y1491500D02*
D03*
Y1486500D02*
D03*
Y1481500D02*
D03*
Y1476500D02*
D03*
Y1471500D02*
D03*
Y1466500D02*
D03*
Y1461500D02*
D03*
D16*
X537000Y1524500D02*
D03*
X532000D02*
D03*
X527000D02*
D03*
X522000D02*
D03*
X517000D02*
D03*
X512000D02*
D03*
X507000D02*
D03*
X502000D02*
D03*
X497000D02*
D03*
X492000D02*
D03*
X487000D02*
D03*
X482000D02*
D03*
Y1453500D02*
D03*
X487000D02*
D03*
X492000D02*
D03*
X497000D02*
D03*
X502000D02*
D03*
X507000D02*
D03*
X512000D02*
D03*
X517000D02*
D03*
X522000D02*
D03*
X527000D02*
D03*
X532000D02*
D03*
X537000D02*
D03*
D17*
X509500Y1489000D02*
D03*
D18*
X558000Y1318000D02*
D03*
Y1337000D02*
D03*
X537000Y1327500D02*
D03*
D19*
X517000Y1558750D02*
D03*
Y1565250D02*
D03*
Y1571750D02*
D03*
X502000Y1558750D02*
D03*
Y1565250D02*
D03*
Y1571750D02*
D03*
D20*
X599500Y1496500D02*
D03*
Y1510500D02*
D03*
D21*
X575000Y1355000D02*
D03*
X585000D02*
D03*
X447750Y1376750D02*
D03*
X437750D02*
D03*
X537500Y1360500D02*
D03*
X547500D02*
D03*
X547500Y1351500D02*
D03*
X537500D02*
D03*
X592500Y1557500D02*
D03*
X582500D02*
D03*
D22*
X561500Y1419000D02*
D03*
Y1409500D02*
D03*
Y1461000D02*
D03*
Y1451500D02*
D03*
Y1473750D02*
D03*
Y1483250D02*
D03*
X515500Y1403250D02*
D03*
Y1412750D02*
D03*
X459500Y1457000D02*
D03*
Y1466500D02*
D03*
X515500Y1434250D02*
D03*
Y1424750D02*
D03*
X526250Y1434250D02*
D03*
Y1424750D02*
D03*
X514500Y1539750D02*
D03*
Y1549250D02*
D03*
X504500Y1539750D02*
D03*
Y1549250D02*
D03*
X561500Y1430500D02*
D03*
Y1440000D02*
D03*
D23*
X584500Y1510485D02*
D03*
Y1496515D02*
D03*
X600000Y1366985D02*
D03*
Y1353015D02*
D03*
X560000Y1366985D02*
D03*
Y1353015D02*
D03*
D24*
X584000Y1412250D02*
D03*
Y1437250D02*
D03*
D25*
X447500Y1430300D02*
D03*
Y1417600D02*
D03*
Y1404900D02*
D03*
Y1392200D02*
D03*
X495500Y1430300D02*
D03*
Y1417600D02*
D03*
Y1404900D02*
D03*
Y1392200D02*
D03*
D26*
X438000Y1582000D02*
D03*
X472000D02*
D03*
D27*
X490000Y1572000D02*
D03*
Y1582000D02*
D03*
D28*
X537750Y1369500D02*
D03*
X547250D02*
D03*
X561750Y1524500D02*
D03*
X571250D02*
D03*
X561750Y1504000D02*
D03*
X571250D02*
D03*
X561750Y1494000D02*
D03*
X571250D02*
D03*
X457750Y1493750D02*
D03*
X448250D02*
D03*
X510750Y1582000D02*
D03*
X501250D02*
D03*
D29*
X444500Y1330000D02*
D03*
Y1320000D02*
D03*
D30*
X445750Y1378750D02*
Y1384500D01*
Y1390450D01*
X486000Y1437750D02*
X497235D01*
X494750Y1443750D02*
X497000Y1446000D01*
X497235Y1437750D02*
X502000Y1442515D01*
X477375Y1445625D02*
X478750Y1447000D01*
X461500Y1424500D02*
Y1436250D01*
X454600Y1417600D02*
X461500Y1424500D01*
X433500Y1381000D02*
X437750Y1376750D01*
X433500Y1381000D02*
Y1398000D01*
X433750Y1398250D01*
X440400Y1404900D02*
X447500D01*
X433750Y1398250D02*
X440400Y1404900D01*
X447500Y1430300D02*
X451750Y1434550D01*
Y1438000D01*
X440058Y1418350D02*
X449500D01*
X459750Y1438000D02*
X461500Y1436250D01*
X447500Y1417600D02*
X454600D01*
X529500Y1385500D02*
X532750Y1388750D01*
X483500Y1385500D02*
X529500D01*
X478000Y1391000D02*
X483500Y1385500D01*
X539000Y1386500D02*
Y1414186D01*
X521400Y1368900D02*
X539000Y1386500D01*
X543000Y1384750D02*
Y1415843D01*
X525400Y1367150D02*
X543000Y1384750D01*
X547000Y1383000D02*
Y1417500D01*
X537750Y1373750D02*
X547000Y1383000D01*
X537750Y1369500D02*
Y1373750D01*
X525400Y1347650D02*
Y1367150D01*
X521400Y1349307D02*
Y1368900D01*
X478000Y1391000D02*
Y1415000D01*
X453753Y1531000D02*
X484750D01*
X468000Y1522500D02*
X470000Y1524500D01*
X482000D01*
X438750Y1494243D02*
X446007Y1501500D01*
X438750Y1465750D02*
Y1494243D01*
X418400Y1445400D02*
X438750Y1465750D01*
X450750Y1472500D02*
X459750Y1481500D01*
X450750Y1454750D02*
Y1472500D01*
X445000Y1475500D02*
X456000Y1486500D01*
X445000Y1459843D02*
Y1475500D01*
X456000Y1486500D02*
X474000D01*
X490089Y1516500D02*
X492000Y1518411D01*
Y1524500D01*
X492313Y1533000D02*
X497000Y1528313D01*
Y1524500D02*
Y1528313D01*
X484750Y1531000D02*
X487000Y1528750D01*
Y1524500D02*
Y1528750D01*
X433000Y1409200D02*
Y1437000D01*
X450750Y1454750D01*
X531750Y1421436D02*
Y1439176D01*
X535750Y1423093D02*
Y1440833D01*
X531750Y1421436D02*
X539000Y1414186D01*
X535750Y1423093D02*
X543000Y1415843D01*
X539750Y1424750D02*
X547000Y1417500D01*
X539750Y1424750D02*
Y1442490D01*
X532000Y1450240D02*
X539750Y1442490D01*
X522000Y1448926D02*
X531750Y1439176D01*
X527000Y1449583D02*
X535750Y1440833D01*
X548750Y1431750D02*
Y1457750D01*
Y1431750D02*
X561500Y1419000D01*
X545000Y1461500D02*
X548750Y1457750D01*
X553250Y1436500D02*
Y1462250D01*
Y1436500D02*
X559250Y1430500D01*
X549000Y1466500D02*
X553250Y1462250D01*
X497000Y1446000D02*
Y1453500D01*
X439200Y1392200D02*
X447500D01*
X492000Y1449583D02*
Y1453500D01*
X487000Y1450240D02*
Y1453500D01*
X483760Y1447000D02*
X487000Y1450240D01*
X478750Y1447000D02*
X483760D01*
X458000Y1371351D02*
Y1380558D01*
X451849Y1365200D02*
X458000Y1371351D01*
X439800Y1365200D02*
X451849D01*
X418400Y1343800D02*
X439800Y1365200D01*
X457950Y1386200D02*
X457985D01*
X454000Y1382250D02*
X457950Y1386200D01*
X454000Y1373007D02*
Y1382250D01*
X502000Y1442515D02*
Y1453500D01*
X418400Y1369200D02*
X450193D01*
X454000Y1373007D01*
X514500Y1461500D02*
X517000Y1459000D01*
Y1453500D02*
Y1459000D01*
X512000Y1437750D02*
X515500Y1434250D01*
X512000Y1437750D02*
Y1453500D01*
X524250Y1436250D02*
X526250D01*
X517000Y1443500D02*
X524250Y1436250D01*
X517000Y1443500D02*
Y1453500D01*
X522000Y1448926D02*
Y1453500D01*
X527000Y1449583D02*
Y1453500D01*
X532000Y1450240D02*
Y1453500D01*
X515400Y1337650D02*
X525400Y1347650D01*
X502700Y1330607D02*
X521400Y1349307D01*
X502700Y1322250D02*
Y1330607D01*
X515400Y1322250D02*
Y1337650D01*
X429000Y1443843D02*
X445000Y1459843D01*
X429000Y1430600D02*
Y1443843D01*
X418400Y1420000D02*
X429000Y1430600D01*
X418400Y1394600D02*
X433000Y1409200D01*
X582500Y1550000D02*
Y1557500D01*
X592500D02*
X595000Y1560000D01*
Y1572500D01*
X580000Y1570000D02*
Y1572500D01*
X570000Y1560000D02*
X580000Y1570000D01*
X475250Y1453500D02*
X482000D01*
X584500Y1496515D02*
X599485D01*
X561750Y1493507D02*
Y1494000D01*
Y1493507D02*
X566757Y1488500D01*
X575743D01*
X583758Y1496515D01*
X584500D01*
X557500Y1528750D02*
X561750Y1524500D01*
X541250Y1528750D02*
X557500D01*
X537000Y1524500D02*
X541250Y1528750D01*
X522000Y1524500D02*
Y1528417D01*
X527000Y1524500D02*
Y1527760D01*
X494000Y1473500D02*
X507000Y1486500D01*
Y1453500D02*
Y1486500D01*
X509500Y1489000D02*
Y1493500D01*
X541740Y1496500D02*
X545000D01*
X538500Y1493260D02*
X541740Y1496500D01*
X545000Y1481500D02*
X560250D01*
X540750D02*
X545000D01*
X538500Y1483750D02*
X540750Y1481500D01*
X538500Y1483750D02*
Y1493260D01*
X545000Y1516500D02*
Y1522750D01*
X549500Y1511500D02*
X553500Y1515500D01*
X545000Y1511500D02*
X549500D01*
X537000Y1508750D02*
X539250Y1506500D01*
X545000D01*
X549250Y1491500D02*
X561750Y1504000D01*
X557500Y1494000D02*
X561750D01*
X550000Y1486500D02*
X557500Y1494000D01*
X545000Y1486500D02*
X550000D01*
X545000Y1491500D02*
X549250D01*
X550750Y1501500D02*
X552750Y1503500D01*
X545000Y1501500D02*
X550750D01*
X580000Y1412250D02*
X584000D01*
X573250Y1419000D02*
X580000Y1412250D01*
X561500Y1419000D02*
X573250D01*
X575500Y1432750D02*
X579500D01*
X573250Y1430500D02*
X575500Y1432750D01*
X561500Y1430500D02*
X573250D01*
X579500Y1432750D02*
X584000Y1437250D01*
X559250Y1430500D02*
X561500D01*
X545000Y1466500D02*
X549000D01*
X549901Y1470500D02*
X553250D01*
X548901Y1471500D02*
X549901Y1470500D01*
X553250D02*
X561500Y1462250D01*
X549558Y1476500D02*
X551143Y1474914D01*
X561500D01*
X545000Y1471500D02*
X548901D01*
X561500Y1473750D02*
X564750Y1477000D01*
X574000D01*
X576000Y1479000D01*
X566250Y1467000D02*
X582993D01*
X561500Y1462250D02*
X566250Y1467000D01*
X439750Y1506500D02*
X474000D01*
X431000Y1497750D02*
X439750Y1506500D01*
X431000Y1483400D02*
Y1497750D01*
X418400Y1470800D02*
X431000Y1483400D01*
X418400Y1496200D02*
X433700Y1511500D01*
X474000D01*
X459750Y1481500D02*
X474000D01*
X591750Y1325258D02*
Y1330020D01*
X575500Y1318000D02*
X584493D01*
X591750Y1325258D01*
X575500Y1337000D02*
X584770D01*
X591750Y1330020D01*
X537000Y1453750D02*
X542750Y1448000D01*
X545000Y1476500D02*
X549558D01*
X582993Y1467000D02*
X592000Y1457993D01*
X444500Y1330000D02*
Y1338750D01*
X537750Y1351750D02*
Y1369500D01*
X474000Y1496500D02*
X502000D01*
X460000Y1491500D02*
X474000D01*
X457750Y1493750D02*
X460000Y1491500D01*
X446007Y1501500D02*
X474000D01*
X459500Y1457000D02*
X469500D01*
X459500Y1466500D02*
X459500Y1466500D01*
X469500Y1457000D02*
X474000Y1461500D01*
X459500Y1466500D02*
X465750D01*
X474000D01*
X474000Y1471500D02*
X480500D01*
X482000Y1470000D01*
X474000Y1476500D02*
X480500D01*
X482000Y1478000D01*
X462350Y1320000D02*
X464600Y1322250D01*
X444500Y1320000D02*
X462350D01*
X497150Y1403250D02*
X515500D01*
X495500Y1392200D02*
Y1404900D01*
X515400Y1350150D02*
Y1367750D01*
X504000Y1338750D02*
X515400Y1350150D01*
X444500Y1338750D02*
X504000D01*
X509500Y1493500D02*
X532000Y1516000D01*
Y1524500D01*
X596250Y1518750D02*
X599500Y1515500D01*
Y1510500D02*
Y1515500D01*
X592750Y1478750D02*
X602500D01*
X561500Y1401000D02*
Y1409500D01*
X448250Y1489500D02*
Y1493750D01*
X444750Y1486000D02*
X448250Y1489500D01*
X517000Y1524500D02*
Y1529250D01*
X524000Y1536250D01*
Y1540000D01*
X491000Y1539000D02*
X494799D01*
X498313Y1535485D01*
Y1532657D02*
Y1535485D01*
Y1532657D02*
X502000Y1528970D01*
Y1524500D02*
Y1528970D01*
X522000Y1528417D02*
X532833Y1539250D01*
X527000Y1527760D02*
X534490Y1535250D01*
X532833Y1539250D02*
X603950D01*
X621600Y1521600D01*
X534490Y1535250D02*
X601250D01*
X611100Y1525400D01*
Y1506700D02*
Y1525400D01*
Y1506700D02*
X621600Y1496200D01*
X481250Y1423750D02*
X487800Y1430300D01*
X495500D01*
X458000Y1380558D02*
X472000Y1394558D01*
Y1423750D01*
X486000Y1437750D01*
X457985Y1386200D02*
X468000Y1396215D01*
Y1425583D01*
X492000Y1449583D01*
X437000Y1327500D02*
X444500Y1320000D01*
X437000Y1327500D02*
Y1350000D01*
X423500Y1516500D02*
X474000D01*
X418400Y1521600D02*
X423500Y1516500D01*
D31*
X502000Y1558750D02*
X504500Y1556250D01*
Y1549250D02*
Y1556250D01*
X514500Y1556250D02*
X517000Y1558750D01*
X514500Y1549250D02*
Y1556250D01*
X504500Y1535075D02*
Y1539750D01*
Y1535075D02*
X507000Y1532575D01*
Y1524500D02*
Y1532575D01*
X514500Y1535075D02*
Y1539750D01*
X512000Y1532575D02*
X514500Y1535075D01*
X512000Y1524500D02*
Y1532575D01*
D32*
X569250Y1443750D02*
Y1448000D01*
X576000Y1454750D01*
Y1456000D01*
X571250Y1494000D02*
Y1504000D01*
D33*
X491250Y1565250D02*
X509250D01*
X509250Y1565250D01*
X523000D01*
D34*
X418400Y1496200D02*
D03*
Y1318400D02*
D03*
Y1343800D02*
D03*
Y1369200D02*
D03*
Y1394600D02*
D03*
Y1420000D02*
D03*
Y1445400D02*
D03*
Y1470800D02*
D03*
Y1521600D02*
D03*
X621600Y1470800D02*
D03*
Y1445400D02*
D03*
Y1420000D02*
D03*
Y1394600D02*
D03*
Y1369200D02*
D03*
Y1343800D02*
D03*
Y1318400D02*
D03*
Y1496200D02*
D03*
Y1521600D02*
D03*
D35*
X525000Y1473500D02*
D03*
X509500D02*
D03*
X494000D02*
D03*
X525000Y1489000D02*
D03*
X509500D02*
D03*
X494000D02*
D03*
X525000Y1504500D02*
D03*
X509500D02*
D03*
X494000D02*
D03*
X467000Y1449000D02*
D03*
X494750Y1443750D02*
D03*
X433750Y1398250D02*
D03*
X445750Y1384500D02*
D03*
X459750Y1438000D02*
D03*
X481250Y1423750D02*
D03*
X478000Y1415000D02*
D03*
X453753Y1531261D02*
D03*
X492313Y1533000D02*
D03*
X465750Y1466500D02*
D03*
X444750Y1486000D02*
D03*
X477250Y1445750D02*
D03*
X465750Y1457000D02*
D03*
X475250Y1453500D02*
D03*
X468000Y1522500D02*
D03*
X475000Y1540000D02*
D03*
X490000Y1552000D02*
D03*
X490089Y1516500D02*
D03*
X445000Y1540000D02*
D03*
X451750Y1438000D02*
D03*
X532750Y1388750D02*
D03*
X496000Y1379000D02*
D03*
X514500Y1461500D02*
D03*
X610000Y1549000D02*
D03*
Y1566000D02*
D03*
Y1583000D02*
D03*
X520000Y1592000D02*
D03*
X505000D02*
D03*
Y1600000D02*
D03*
X520000D02*
D03*
X535000D02*
D03*
X550000D02*
D03*
X565000D02*
D03*
X580000D02*
D03*
X595000D02*
D03*
X610000D02*
D03*
X582500Y1550000D02*
D03*
X570000Y1560000D02*
D03*
X490000Y1600000D02*
D03*
Y1592000D02*
D03*
Y1564000D02*
D03*
X460000Y1540000D02*
D03*
X430000D02*
D03*
X596250Y1518750D02*
D03*
X553750Y1481500D02*
D03*
X584250Y1524500D02*
D03*
X552750Y1503500D02*
D03*
X553500Y1515500D02*
D03*
X545000Y1522750D02*
D03*
X537000Y1508750D02*
D03*
X542750Y1448000D02*
D03*
X569250Y1443750D02*
D03*
X602500Y1478750D02*
D03*
X585500Y1327500D02*
D03*
X575000Y1310000D02*
D03*
X535000Y1335001D02*
D03*
X444500Y1339000D02*
D03*
X482000Y1470000D02*
D03*
Y1478000D02*
D03*
X455000Y1355000D02*
D03*
X495500Y1398500D02*
D03*
X510000Y1418750D02*
D03*
X570500Y1367000D02*
D03*
X589500D02*
D03*
X561500Y1401000D02*
D03*
X489750Y1348250D02*
D03*
X600000Y1310000D02*
D03*
X435000D02*
D03*
X455000D02*
D03*
X603000Y1401000D02*
D03*
X552000Y1528750D02*
D03*
X509250Y1565250D02*
D03*
X524250Y1566500D02*
D03*
X524000Y1540000D02*
D03*
Y1550000D02*
D03*
X521000Y1578500D02*
D03*
X489504Y1541012D02*
D03*
X432000Y1471000D02*
D03*
X462000Y1411000D02*
D03*
X427000Y1382000D02*
D03*
X437000Y1350000D02*
D03*
X600000Y1344500D02*
D03*
M02*
