G04 Layer_Color=32896*
%FSLAX44Y44*%
%MOMM*%
G71*
G01*
G75*
%ADD30C,0.2000*%
%ADD31C,0.2500*%
D30*
X480098Y1299750D02*
X560000D01*
X480098D02*
Y1308500D01*
Y1331500D02*
Y1348500D01*
X560000Y1299750D02*
Y1308500D01*
Y1331500D02*
Y1348500D01*
X537000D02*
X560000D01*
X480098D02*
X503000D01*
X504500Y1373750D02*
X508250Y1370000D01*
X504500Y1405000D02*
X542000D01*
X508250Y1370000D02*
X542000D01*
Y1405000D01*
X504500Y1373750D02*
Y1405000D01*
X590335Y1318998D02*
X592667D01*
X591501D01*
Y1313166D01*
X592667Y1312000D01*
X593834D01*
X595000Y1313166D01*
X583337Y1312000D02*
X588002D01*
X583337Y1316665D01*
Y1317832D01*
X584503Y1318998D01*
X586836D01*
X588002Y1317832D01*
X540000Y1415998D02*
Y1409000D01*
X536501D01*
X535335Y1410166D01*
Y1414832D01*
X536501Y1415998D01*
X540000D01*
X528337Y1409000D02*
X533002D01*
X528337Y1413665D01*
Y1414832D01*
X529503Y1415998D01*
X531836D01*
X533002Y1414832D01*
X580000Y1380000D02*
Y1386998D01*
X576501D01*
X575335Y1385831D01*
Y1383499D01*
X576501Y1382333D01*
X580000D01*
X577667D02*
X575335Y1380000D01*
X568337Y1386998D02*
X573002D01*
Y1383499D01*
X570670Y1384665D01*
X569503D01*
X568337Y1383499D01*
Y1381166D01*
X569503Y1380000D01*
X571836D01*
X573002Y1381166D01*
X476000Y1363000D02*
Y1369998D01*
X472501D01*
X471335Y1368831D01*
Y1366499D01*
X472501Y1365333D01*
X476000D01*
X473667D02*
X471335Y1363000D01*
X465503D02*
Y1369998D01*
X469002Y1366499D01*
X464337D01*
X559000Y1396000D02*
Y1402998D01*
X555501D01*
X554335Y1401832D01*
Y1399499D01*
X555501Y1398333D01*
X559000D01*
X556667D02*
X554335Y1396000D01*
X552002Y1401832D02*
X550836Y1402998D01*
X548503D01*
X547337Y1401832D01*
Y1400665D01*
X548503Y1399499D01*
X549670D01*
X548503D01*
X547337Y1398333D01*
Y1397166D01*
X548503Y1396000D01*
X550836D01*
X552002Y1397166D01*
X495335Y1384831D02*
X496501Y1385998D01*
X498834D01*
X500000Y1384831D01*
Y1380166D01*
X498834Y1379000D01*
X496501D01*
X495335Y1380166D01*
X493002Y1379000D02*
X490670D01*
X491836D01*
Y1385998D01*
X493002Y1384831D01*
X487171D02*
X486004Y1385998D01*
X483672D01*
X482505Y1384831D01*
Y1380166D01*
X483672Y1379000D01*
X486004D01*
X487171Y1380166D01*
Y1384831D01*
X580000Y1364000D02*
Y1370998D01*
X576501D01*
X575335Y1369831D01*
Y1367499D01*
X576501Y1366333D01*
X580000D01*
X577667D02*
X575335Y1364000D01*
X568337Y1370998D02*
X570670Y1369831D01*
X573002Y1367499D01*
Y1365166D01*
X571836Y1364000D01*
X569503D01*
X568337Y1365166D01*
Y1366333D01*
X569503Y1367499D01*
X573002D01*
D31*
X541500Y1353000D02*
G03*
X541500Y1353000I-1250J0D01*
G01*
M02*
