G04 Layer_Physical_Order=3*
G04 Layer_Color=16440176*
%FSLAX44Y44*%
%MOMM*%
G71*
G01*
G75*
%ADD34R,1.5000X1.5000*%
%ADD35C,0.6000*%
%ADD36C,0.6000*%
G36*
X606664Y1603785D02*
X606395Y1603605D01*
X605290Y1601951D01*
X604902Y1600000D01*
X605290Y1598049D01*
X606395Y1596395D01*
X608049Y1595290D01*
X610000Y1594902D01*
X611951Y1595290D01*
X613605Y1596395D01*
X613785Y1596664D01*
X615000Y1596296D01*
Y1586704D01*
X613785Y1586336D01*
X613605Y1586605D01*
X611951Y1587710D01*
X610000Y1588098D01*
X608049Y1587710D01*
X606395Y1586605D01*
X605290Y1584951D01*
X604902Y1583000D01*
X605290Y1581049D01*
X606395Y1579395D01*
X608049Y1578290D01*
X610000Y1577902D01*
X611951Y1578290D01*
X613605Y1579395D01*
X613785Y1579664D01*
X615000Y1579296D01*
Y1569704D01*
X613785Y1569336D01*
X613605Y1569605D01*
X611951Y1570710D01*
X610000Y1571098D01*
X608049Y1570710D01*
X606395Y1569605D01*
X605290Y1567951D01*
X604902Y1566000D01*
X605290Y1564049D01*
X606395Y1562395D01*
X608049Y1561290D01*
X610000Y1560902D01*
X611951Y1561290D01*
X613605Y1562395D01*
X613785Y1562664D01*
X615000Y1562296D01*
Y1552704D01*
X613785Y1552336D01*
X613605Y1552605D01*
X611951Y1553710D01*
X610000Y1554098D01*
X608049Y1553710D01*
X606395Y1552605D01*
X605290Y1550951D01*
X604902Y1549000D01*
X605290Y1547049D01*
X606395Y1545395D01*
X608049Y1544290D01*
X610000Y1543902D01*
X611951Y1544290D01*
X613605Y1545395D01*
X613785Y1545664D01*
X615000Y1545296D01*
Y1531100D01*
X612100D01*
Y1512100D01*
X615000D01*
Y1505700D01*
X612100D01*
Y1493559D01*
X610927Y1493073D01*
X585493Y1518507D01*
X585861Y1519723D01*
X586201Y1519790D01*
X587855Y1520895D01*
X588960Y1522549D01*
X589348Y1524500D01*
X588960Y1526451D01*
X587855Y1528105D01*
X586201Y1529210D01*
X584250Y1529598D01*
X582299Y1529210D01*
X580645Y1528105D01*
X579540Y1526451D01*
X579473Y1526111D01*
X578257Y1525743D01*
X577000Y1527000D01*
X552981D01*
X552861Y1527289D01*
X551419Y1529169D01*
X549539Y1530611D01*
X547349Y1531518D01*
X545000Y1531828D01*
X542650Y1531518D01*
X540461Y1530611D01*
X538581Y1529169D01*
X537138Y1527289D01*
X536231Y1525099D01*
X535922Y1522750D01*
X536231Y1520401D01*
X536883Y1518828D01*
X536248Y1517729D01*
X534650Y1517518D01*
X532461Y1516611D01*
X530581Y1515169D01*
X529138Y1513289D01*
X528232Y1511100D01*
X528063Y1509816D01*
X526951Y1509210D01*
D01*
D01*
X526951Y1509210D01*
D01*
X525000Y1509598D01*
X523049Y1509210D01*
X521395Y1508105D01*
X520290Y1506451D01*
X519902Y1504500D01*
X520290Y1502549D01*
X521395Y1500895D01*
X523049Y1499790D01*
X525000Y1499402D01*
X526951Y1499790D01*
X528605Y1500895D01*
X529393Y1502074D01*
X530646Y1502281D01*
X532461Y1500889D01*
X534650Y1499982D01*
X537000Y1499672D01*
X539350Y1499982D01*
X539944Y1500228D01*
X541000Y1499522D01*
Y1456847D01*
X540401Y1456768D01*
X538211Y1455862D01*
X536331Y1454419D01*
X534889Y1452539D01*
X533982Y1450350D01*
X533672Y1448000D01*
X533982Y1445651D01*
X534889Y1443461D01*
X536331Y1441581D01*
X538211Y1440139D01*
X540401Y1439232D01*
X541976Y1439024D01*
X608100Y1372900D01*
Y1355700D01*
X615000D01*
Y1353300D01*
X612100D01*
Y1334300D01*
X615000D01*
Y1305000D01*
X603704D01*
X603335Y1306215D01*
X603605Y1306395D01*
X604710Y1308049D01*
X605098Y1310000D01*
X604710Y1311951D01*
X603605Y1313605D01*
X601951Y1314710D01*
X600000Y1315098D01*
X598049Y1314710D01*
X596395Y1313605D01*
X595290Y1311951D01*
X594902Y1310000D01*
X595290Y1308049D01*
X596395Y1306395D01*
X596664Y1306215D01*
X596296Y1305000D01*
X578704D01*
X578335Y1306215D01*
X578605Y1306395D01*
X579710Y1308049D01*
X580098Y1310000D01*
X579710Y1311951D01*
X578605Y1313605D01*
X576951Y1314710D01*
X575000Y1315098D01*
X573049Y1314710D01*
X571395Y1313605D01*
X570290Y1311951D01*
X569902Y1310000D01*
X570290Y1308049D01*
X571395Y1306395D01*
X571665Y1306215D01*
X571296Y1305000D01*
X458704D01*
X458335Y1306215D01*
X458605Y1306395D01*
X459710Y1308049D01*
X460098Y1310000D01*
X459710Y1311951D01*
X459556Y1312182D01*
X460154Y1313302D01*
X518399D01*
X520350Y1313690D01*
X522004Y1314795D01*
X522004Y1314795D01*
X522004Y1314795D01*
X538605Y1331396D01*
X539710Y1333050D01*
X539774Y1333374D01*
X540098Y1335001D01*
X539710Y1336952D01*
X538605Y1338606D01*
X536951Y1339711D01*
X535000Y1340099D01*
X533373Y1339775D01*
X533049Y1339711D01*
X531395Y1338606D01*
X516288Y1323498D01*
X427900D01*
Y1327900D01*
X425000D01*
Y1334300D01*
X427900D01*
Y1353300D01*
X425000D01*
Y1359700D01*
X427900D01*
Y1377081D01*
X428951Y1377290D01*
X430605Y1378395D01*
X431710Y1380049D01*
X432098Y1382000D01*
X431710Y1383951D01*
X430605Y1385605D01*
X428951Y1386710D01*
X427900Y1386919D01*
Y1404100D01*
X425000D01*
Y1410500D01*
X427900D01*
Y1429500D01*
X425000D01*
Y1435900D01*
X427900D01*
Y1454900D01*
X425000D01*
Y1461300D01*
X427900D01*
Y1466379D01*
X429020Y1466978D01*
X430049Y1466290D01*
X432000Y1465902D01*
X433951Y1466290D01*
X435605Y1467395D01*
X436710Y1469049D01*
X437098Y1471000D01*
X436710Y1472951D01*
X435605Y1474605D01*
X433951Y1475710D01*
X432000Y1476098D01*
X430049Y1475710D01*
X429020Y1475022D01*
X427900Y1475621D01*
Y1480300D01*
X425000D01*
Y1486700D01*
X427900D01*
Y1505700D01*
X425000D01*
Y1512100D01*
X427900D01*
Y1531100D01*
X425000D01*
Y1536296D01*
X426215Y1536664D01*
X426395Y1536395D01*
X428049Y1535290D01*
X430000Y1534902D01*
X431951Y1535290D01*
X433605Y1536395D01*
X434710Y1538049D01*
X435098Y1540000D01*
X434710Y1541951D01*
X433605Y1543605D01*
X433336Y1543785D01*
X433704Y1545000D01*
X441296D01*
X441664Y1543785D01*
X441395Y1543605D01*
X440290Y1541951D01*
X439902Y1540000D01*
X440290Y1538049D01*
X441395Y1536395D01*
X443049Y1535290D01*
X445000Y1534902D01*
X446951Y1535290D01*
X448605Y1536395D01*
X449710Y1538049D01*
X450098Y1540000D01*
X449710Y1541951D01*
X448605Y1543605D01*
X448336Y1543785D01*
X448704Y1545000D01*
X456296D01*
X456664Y1543785D01*
X456395Y1543605D01*
X455290Y1541951D01*
X454902Y1540000D01*
X455290Y1538049D01*
X455906Y1537127D01*
X455201Y1536071D01*
X453753Y1536359D01*
X451802Y1535971D01*
X450148Y1534866D01*
X449043Y1533212D01*
X448655Y1531261D01*
X449043Y1529310D01*
X450148Y1527657D01*
X451802Y1526551D01*
X453753Y1526163D01*
X455704Y1526551D01*
X457357Y1527657D01*
X458462Y1529310D01*
X458851Y1531261D01*
X458462Y1533212D01*
X457846Y1534134D01*
X458552Y1535190D01*
X460000Y1534902D01*
X461951Y1535290D01*
X463605Y1536395D01*
X464710Y1538049D01*
X465098Y1540000D01*
X464710Y1541951D01*
X463605Y1543605D01*
X463336Y1543785D01*
X463704Y1545000D01*
X471296D01*
X471664Y1543785D01*
X471395Y1543605D01*
X470290Y1541951D01*
X469902Y1540000D01*
X470290Y1538049D01*
X471395Y1536395D01*
X473049Y1535290D01*
X475000Y1534902D01*
X476951Y1535290D01*
X478605Y1536395D01*
X479710Y1538049D01*
X480098Y1540000D01*
X479710Y1541951D01*
X478605Y1543605D01*
X478336Y1543785D01*
X478704Y1545000D01*
X484809D01*
X485407Y1543880D01*
X484795Y1542963D01*
X484406Y1541012D01*
X484795Y1539061D01*
X485900Y1537407D01*
X487466Y1536361D01*
X487713Y1535115D01*
X487604Y1534951D01*
X487215Y1533000D01*
X487604Y1531049D01*
X488709Y1529395D01*
X490363Y1528290D01*
X492313Y1527902D01*
X494264Y1528290D01*
X495918Y1529395D01*
X497023Y1531049D01*
X497411Y1533000D01*
X497023Y1534951D01*
X495918Y1536605D01*
X494352Y1537651D01*
X494104Y1538897D01*
X494214Y1539061D01*
X494602Y1541012D01*
X494214Y1542963D01*
X493109Y1544617D01*
X491455Y1545722D01*
X490953Y1545822D01*
Y1547092D01*
X491951Y1547290D01*
X493605Y1548395D01*
X494710Y1550049D01*
X495098Y1552000D01*
X494710Y1553951D01*
X493605Y1555605D01*
X491951Y1556710D01*
X490000Y1557098D01*
X488049Y1556710D01*
X486395Y1555605D01*
X486215Y1555336D01*
X485000Y1555704D01*
Y1560296D01*
X486215Y1560664D01*
X486395Y1560395D01*
X488049Y1559290D01*
X490000Y1558902D01*
X491951Y1559290D01*
X493605Y1560395D01*
X494710Y1562049D01*
X495098Y1564000D01*
X494710Y1565951D01*
X493605Y1567605D01*
X491951Y1568710D01*
X490000Y1569098D01*
X488049Y1568710D01*
X486395Y1567605D01*
X486215Y1567336D01*
X485000Y1567704D01*
Y1588296D01*
X486215Y1588664D01*
X486395Y1588395D01*
X488049Y1587290D01*
X490000Y1586902D01*
X491951Y1587290D01*
X493605Y1588395D01*
X494710Y1590049D01*
X495098Y1592000D01*
X494710Y1593951D01*
X493605Y1595605D01*
Y1596395D01*
X494710Y1598049D01*
X495098Y1600000D01*
X494710Y1601951D01*
X493605Y1603605D01*
X493336Y1603785D01*
X493704Y1605000D01*
X501296D01*
X501664Y1603785D01*
X501395Y1603605D01*
X500290Y1601951D01*
X499902Y1600000D01*
X500290Y1598049D01*
X501395Y1596395D01*
Y1595605D01*
X500290Y1593951D01*
X499902Y1592000D01*
X500290Y1590049D01*
X501395Y1588395D01*
X503049Y1587290D01*
X505000Y1586902D01*
X506951Y1587290D01*
X508605Y1588395D01*
X509710Y1590049D01*
X510098Y1592000D01*
X509710Y1593951D01*
X508605Y1595605D01*
Y1596395D01*
X509710Y1598049D01*
X510098Y1600000D01*
X509710Y1601951D01*
X508605Y1603605D01*
X508336Y1603785D01*
X508704Y1605000D01*
X516296D01*
X516664Y1603785D01*
X516395Y1603605D01*
X515290Y1601951D01*
X514902Y1600000D01*
X515290Y1598049D01*
X516395Y1596395D01*
Y1595605D01*
X515290Y1593951D01*
X514902Y1592000D01*
X515290Y1590049D01*
X516395Y1588395D01*
X518049Y1587290D01*
X520000Y1586902D01*
X521951Y1587290D01*
X523605Y1588395D01*
X524710Y1590049D01*
X525098Y1592000D01*
X524710Y1593951D01*
X523605Y1595605D01*
Y1596395D01*
X524710Y1598049D01*
X525098Y1600000D01*
X524710Y1601951D01*
X523605Y1603605D01*
X523336Y1603785D01*
X523704Y1605000D01*
X531296D01*
X531664Y1603785D01*
X531395Y1603605D01*
X530290Y1601951D01*
X529902Y1600000D01*
X530290Y1598049D01*
X531395Y1596395D01*
X533049Y1595290D01*
X535000Y1594902D01*
X536951Y1595290D01*
X538605Y1596395D01*
X539710Y1598049D01*
X540098Y1600000D01*
X539710Y1601951D01*
X538605Y1603605D01*
X538336Y1603785D01*
X538704Y1605000D01*
X546296D01*
X546664Y1603785D01*
X546395Y1603605D01*
X545290Y1601951D01*
X544902Y1600000D01*
X545290Y1598049D01*
X546395Y1596395D01*
X548049Y1595290D01*
X550000Y1594902D01*
X551951Y1595290D01*
X553605Y1596395D01*
X554710Y1598049D01*
X555098Y1600000D01*
X554710Y1601951D01*
X553605Y1603605D01*
X553336Y1603785D01*
X553704Y1605000D01*
X561296D01*
X561664Y1603785D01*
X561395Y1603605D01*
X560290Y1601951D01*
X559902Y1600000D01*
X560290Y1598049D01*
X561395Y1596395D01*
X563049Y1595290D01*
X565000Y1594902D01*
X566951Y1595290D01*
X568605Y1596395D01*
X569710Y1598049D01*
X570098Y1600000D01*
X569710Y1601951D01*
X568605Y1603605D01*
X568336Y1603785D01*
X568704Y1605000D01*
X576296D01*
X576664Y1603785D01*
X576395Y1603605D01*
X575290Y1601951D01*
X574902Y1600000D01*
X575290Y1598049D01*
X576395Y1596395D01*
X578049Y1595290D01*
X580000Y1594902D01*
X581951Y1595290D01*
X583605Y1596395D01*
X584710Y1598049D01*
X585098Y1600000D01*
X584710Y1601951D01*
X583605Y1603605D01*
X583336Y1603785D01*
X583704Y1605000D01*
X591296D01*
X591664Y1603785D01*
X591395Y1603605D01*
X590290Y1601951D01*
X589902Y1600000D01*
X590290Y1598049D01*
X591395Y1596395D01*
X593049Y1595290D01*
X595000Y1594902D01*
X596951Y1595290D01*
X598605Y1596395D01*
X599710Y1598049D01*
X600098Y1600000D01*
X599710Y1601951D01*
X598605Y1603605D01*
X598336Y1603785D01*
X598704Y1605000D01*
X606296D01*
X606664Y1603785D01*
D02*
G37*
%LPC*%
G36*
X521000Y1583598D02*
X519049Y1583210D01*
X517395Y1582105D01*
X516290Y1580451D01*
X515902Y1578500D01*
X516290Y1576549D01*
X517395Y1574895D01*
X519049Y1573790D01*
X521000Y1573402D01*
X522951Y1573790D01*
X524605Y1574895D01*
X525710Y1576549D01*
X526098Y1578500D01*
X525710Y1580451D01*
X524605Y1582105D01*
X522951Y1583210D01*
X521000Y1583598D01*
D02*
G37*
G36*
X524250Y1571598D02*
X522299Y1571210D01*
X520645Y1570105D01*
X519540Y1568451D01*
X519152Y1566500D01*
X519540Y1564549D01*
X520645Y1562895D01*
X522299Y1561790D01*
X524250Y1561402D01*
X526201Y1561790D01*
X527855Y1562895D01*
X528960Y1564549D01*
X529348Y1566500D01*
X528960Y1568451D01*
X527855Y1570105D01*
X526201Y1571210D01*
X524250Y1571598D01*
D02*
G37*
G36*
X509250Y1570348D02*
X507299Y1569960D01*
X505645Y1568855D01*
X504540Y1567201D01*
X504152Y1565250D01*
X504540Y1563299D01*
X505645Y1561645D01*
X507299Y1560540D01*
X509250Y1560152D01*
X511201Y1560540D01*
X512855Y1561645D01*
X513960Y1563299D01*
X514348Y1565250D01*
X513960Y1567201D01*
X512855Y1568855D01*
X511201Y1569960D01*
X509250Y1570348D01*
D02*
G37*
G36*
X570000Y1565098D02*
X568049Y1564710D01*
X566395Y1563605D01*
X565290Y1561951D01*
X564902Y1560000D01*
X565290Y1558049D01*
X566395Y1556395D01*
X568049Y1555290D01*
X570000Y1554902D01*
X571951Y1555290D01*
X573605Y1556395D01*
X574710Y1558049D01*
X575098Y1560000D01*
X574710Y1561951D01*
X573605Y1563605D01*
X571951Y1564710D01*
X570000Y1565098D01*
D02*
G37*
G36*
X524000Y1555098D02*
X522049Y1554710D01*
X520395Y1553605D01*
X519290Y1551951D01*
X518902Y1550000D01*
X519290Y1548049D01*
X520395Y1546395D01*
X521533Y1545635D01*
Y1544365D01*
X520395Y1543605D01*
X519290Y1541951D01*
X518902Y1540000D01*
X519290Y1538049D01*
X520395Y1536395D01*
X522049Y1535290D01*
X524000Y1534902D01*
X525951Y1535290D01*
X527605Y1536395D01*
X528710Y1538049D01*
X529098Y1540000D01*
X528710Y1541951D01*
X527605Y1543605D01*
X526467Y1544365D01*
Y1545635D01*
X527605Y1546395D01*
X528710Y1548049D01*
X529098Y1550000D01*
X528710Y1551951D01*
X527605Y1553605D01*
X525951Y1554710D01*
X524000Y1555098D01*
D02*
G37*
G36*
X468000Y1527598D02*
X466049Y1527210D01*
X464395Y1526105D01*
X463290Y1524451D01*
X462902Y1522500D01*
X463290Y1520549D01*
X464395Y1518895D01*
X466049Y1517790D01*
X468000Y1517402D01*
X469951Y1517790D01*
X471605Y1518895D01*
X472710Y1520549D01*
X473098Y1522500D01*
X472710Y1524451D01*
X471605Y1526105D01*
X469951Y1527210D01*
X468000Y1527598D01*
D02*
G37*
G36*
X490089Y1521598D02*
X488138Y1521210D01*
X486484Y1520105D01*
X485379Y1518451D01*
X484991Y1516500D01*
X485379Y1514549D01*
X486484Y1512895D01*
X488138Y1511790D01*
X490089Y1511402D01*
X492040Y1511790D01*
X493694Y1512895D01*
X494799Y1514549D01*
X495187Y1516500D01*
X494799Y1518451D01*
X493694Y1520105D01*
X492040Y1521210D01*
X490089Y1521598D01*
D02*
G37*
G36*
X509500Y1509598D02*
X507549Y1509210D01*
X505895Y1508105D01*
X504790Y1506451D01*
X504402Y1504500D01*
X504790Y1502549D01*
X505895Y1500895D01*
X507549Y1499790D01*
X509500Y1499402D01*
X511451Y1499790D01*
X513105Y1500895D01*
X514210Y1502549D01*
X514598Y1504500D01*
X514210Y1506451D01*
X513105Y1508105D01*
X511451Y1509210D01*
X509500Y1509598D01*
D02*
G37*
G36*
X494000D02*
X492049Y1509210D01*
X490395Y1508105D01*
X489290Y1506451D01*
X488902Y1504500D01*
X489290Y1502549D01*
X490395Y1500895D01*
X492049Y1499790D01*
X494000Y1499402D01*
X495951Y1499790D01*
X497605Y1500895D01*
X498710Y1502549D01*
X499098Y1504500D01*
X498710Y1506451D01*
X497605Y1508105D01*
X495951Y1509210D01*
X494000Y1509598D01*
D02*
G37*
G36*
X525000Y1494098D02*
X523049Y1493710D01*
X521395Y1492605D01*
X520290Y1490951D01*
X519902Y1489000D01*
X520290Y1487049D01*
X521395Y1485395D01*
X523049Y1484290D01*
X525000Y1483902D01*
X526951Y1484290D01*
X528605Y1485395D01*
X529710Y1487049D01*
X530098Y1489000D01*
X529710Y1490951D01*
X528605Y1492605D01*
X526951Y1493710D01*
X525000Y1494098D01*
D02*
G37*
G36*
X509500D02*
X507549Y1493710D01*
X505895Y1492605D01*
X504790Y1490951D01*
X504402Y1489000D01*
X504790Y1487049D01*
X505895Y1485395D01*
X507549Y1484290D01*
X509500Y1483902D01*
X511451Y1484290D01*
X513105Y1485395D01*
X514210Y1487049D01*
X514598Y1489000D01*
X514210Y1490951D01*
X513105Y1492605D01*
X511451Y1493710D01*
X509500Y1494098D01*
D02*
G37*
G36*
X494000D02*
X492049Y1493710D01*
X490395Y1492605D01*
X489290Y1490951D01*
X488902Y1489000D01*
X489290Y1487049D01*
X490395Y1485395D01*
X492049Y1484290D01*
X494000Y1483902D01*
X495951Y1484290D01*
X497605Y1485395D01*
X498710Y1487049D01*
X499098Y1489000D01*
X498710Y1490951D01*
X497605Y1492605D01*
X495951Y1493710D01*
X494000Y1494098D01*
D02*
G37*
G36*
X444750Y1491098D02*
X442799Y1490710D01*
X441145Y1489605D01*
X440040Y1487951D01*
X439652Y1486000D01*
X440040Y1484049D01*
X441145Y1482395D01*
X442799Y1481290D01*
X444750Y1480902D01*
X446701Y1481290D01*
X448355Y1482395D01*
X449460Y1484049D01*
X449848Y1486000D01*
X449460Y1487951D01*
X448355Y1489605D01*
X446701Y1490710D01*
X444750Y1491098D01*
D02*
G37*
G36*
X525000Y1478598D02*
X523049Y1478210D01*
X521395Y1477105D01*
X520290Y1475451D01*
X519902Y1473500D01*
X520290Y1471549D01*
X521395Y1469895D01*
X523049Y1468790D01*
X525000Y1468402D01*
X526951Y1468790D01*
X528605Y1469895D01*
X529710Y1471549D01*
X530098Y1473500D01*
X529710Y1475451D01*
X528605Y1477105D01*
X526951Y1478210D01*
X525000Y1478598D01*
D02*
G37*
G36*
X509500D02*
X507549Y1478210D01*
X505895Y1477105D01*
X504790Y1475451D01*
X504402Y1473500D01*
X504790Y1471549D01*
X505895Y1469895D01*
X507549Y1468790D01*
X509500Y1468402D01*
X511451Y1468790D01*
X513105Y1469895D01*
X514210Y1471549D01*
X514598Y1473500D01*
X514210Y1475451D01*
X513105Y1477105D01*
X511451Y1478210D01*
X509500Y1478598D01*
D02*
G37*
G36*
X482000Y1487078D02*
X479650Y1486768D01*
X477461Y1485861D01*
X475581Y1484419D01*
X474138Y1482539D01*
X473232Y1480349D01*
X472922Y1478000D01*
X473232Y1475650D01*
X473915Y1474000D01*
X473232Y1472350D01*
X472922Y1470000D01*
X473232Y1467650D01*
X474138Y1465461D01*
X475581Y1463581D01*
X477461Y1462139D01*
X479650Y1461232D01*
X482000Y1460922D01*
X484350Y1461232D01*
X486539Y1462139D01*
X488419Y1463581D01*
X489861Y1465461D01*
X490768Y1467650D01*
X490853Y1468292D01*
X492010Y1468817D01*
X492049Y1468790D01*
X494000Y1468402D01*
X495951Y1468790D01*
X497605Y1469895D01*
X498710Y1471549D01*
X499098Y1473500D01*
X498710Y1475451D01*
X497605Y1477105D01*
X495951Y1478210D01*
X494000Y1478598D01*
X492049Y1478210D01*
X490805Y1480072D01*
X490768Y1480349D01*
X489861Y1482539D01*
X488419Y1484419D01*
X486539Y1485861D01*
X484350Y1486768D01*
X482000Y1487078D01*
D02*
G37*
G36*
X465750Y1471598D02*
X463799Y1471210D01*
X462145Y1470105D01*
X461040Y1468451D01*
X460652Y1466500D01*
X461040Y1464549D01*
X462145Y1462895D01*
X463799Y1461790D01*
X465750Y1461402D01*
X467701Y1461790D01*
X469355Y1462895D01*
X470460Y1464549D01*
X470848Y1466500D01*
X470460Y1468451D01*
X469355Y1470105D01*
X467701Y1471210D01*
X465750Y1471598D01*
D02*
G37*
G36*
X475250Y1458598D02*
X473299Y1458210D01*
X471645Y1457105D01*
X470540Y1455451D01*
X470271Y1454098D01*
X469098Y1453612D01*
X468951Y1453710D01*
X467000Y1454098D01*
X465049Y1453710D01*
X463395Y1452605D01*
X462290Y1450951D01*
X461902Y1449000D01*
X462290Y1447049D01*
X463395Y1445395D01*
X465049Y1444290D01*
X467000Y1443902D01*
X468951Y1444290D01*
X470605Y1445395D01*
X470930Y1445881D01*
X472175Y1445634D01*
X472540Y1443799D01*
X473645Y1442145D01*
X475299Y1441040D01*
X477250Y1440652D01*
X479201Y1441040D01*
X480855Y1442145D01*
X481960Y1443799D01*
X482348Y1445750D01*
X481960Y1447701D01*
X480855Y1449355D01*
X479969Y1449947D01*
X479721Y1451192D01*
X479960Y1451549D01*
X480348Y1453500D01*
X479960Y1455451D01*
X478855Y1457105D01*
X477201Y1458210D01*
X475250Y1458598D01*
D02*
G37*
G36*
X459750Y1443098D02*
X457799Y1442710D01*
X456145Y1441605D01*
X455355D01*
X453701Y1442710D01*
X451750Y1443098D01*
X449799Y1442710D01*
X448145Y1441605D01*
X447040Y1439951D01*
X446652Y1438000D01*
X447040Y1436049D01*
X448145Y1434395D01*
X449799Y1433290D01*
X451750Y1432902D01*
X453701Y1433290D01*
X455355Y1434395D01*
X456145D01*
X457799Y1433290D01*
X459750Y1432902D01*
X461701Y1433290D01*
X463355Y1434395D01*
X464460Y1436049D01*
X464848Y1438000D01*
X464460Y1439951D01*
X463355Y1441605D01*
X461701Y1442710D01*
X459750Y1443098D01*
D02*
G37*
G36*
X494750Y1448848D02*
X492799Y1448460D01*
X491145Y1447355D01*
X490040Y1445701D01*
X489652Y1443750D01*
X490040Y1441799D01*
X491145Y1440145D01*
X492799Y1439040D01*
X494750Y1438652D01*
X496701Y1439040D01*
X498355Y1440145D01*
X499460Y1441799D01*
X499848Y1443750D01*
X499460Y1445701D01*
X498355Y1447355D01*
X496701Y1448460D01*
X494750Y1448848D01*
D02*
G37*
G36*
X510000Y1423848D02*
X508049Y1423460D01*
X506395Y1422355D01*
X505290Y1420701D01*
X504902Y1418750D01*
X505290Y1416799D01*
X506395Y1415145D01*
X508049Y1414040D01*
X510000Y1413652D01*
X511951Y1414040D01*
X513605Y1415145D01*
X514710Y1416799D01*
X515098Y1418750D01*
X514710Y1420701D01*
X513605Y1422355D01*
X511951Y1423460D01*
X510000Y1423848D01*
D02*
G37*
G36*
X481250Y1428848D02*
X479299Y1428460D01*
X477645Y1427355D01*
X476540Y1425701D01*
X476152Y1423750D01*
X476540Y1421799D01*
X477080Y1420992D01*
X476594Y1419818D01*
X476049Y1419710D01*
X474395Y1418605D01*
X473290Y1416951D01*
X472902Y1415000D01*
X473290Y1413049D01*
X474395Y1411395D01*
X476049Y1410290D01*
X478000Y1409902D01*
X479951Y1410290D01*
X481605Y1411395D01*
X482710Y1413049D01*
X483098Y1415000D01*
X482710Y1416951D01*
X482170Y1417758D01*
X482656Y1418932D01*
X483201Y1419040D01*
X484855Y1420145D01*
X485960Y1421799D01*
X486348Y1423750D01*
X485960Y1425701D01*
X484855Y1427355D01*
X483201Y1428460D01*
X481250Y1428848D01*
D02*
G37*
G36*
X462000Y1416098D02*
X460049Y1415710D01*
X458395Y1414605D01*
X457290Y1412951D01*
X456902Y1411000D01*
X457290Y1409049D01*
X458395Y1407395D01*
X460049Y1406290D01*
X462000Y1405902D01*
X463951Y1406290D01*
X465605Y1407395D01*
X466710Y1409049D01*
X467098Y1411000D01*
X466710Y1412951D01*
X465605Y1414605D01*
X463951Y1415710D01*
X462000Y1416098D01*
D02*
G37*
G36*
X561500Y1406098D02*
X559549Y1405710D01*
X557895Y1404605D01*
X556790Y1402951D01*
X556402Y1401000D01*
X556790Y1399049D01*
X557895Y1397395D01*
X559549Y1396290D01*
X561500Y1395902D01*
X563451Y1396290D01*
X565105Y1397395D01*
X566210Y1399049D01*
X566598Y1401000D01*
X566210Y1402951D01*
X565105Y1404605D01*
X563451Y1405710D01*
X561500Y1406098D01*
D02*
G37*
G36*
X532750Y1393848D02*
X530799Y1393460D01*
X529145Y1392355D01*
X528040Y1390701D01*
X527652Y1388750D01*
X528040Y1386799D01*
X529145Y1385145D01*
X530799Y1384040D01*
X532750Y1383652D01*
X534701Y1384040D01*
X536355Y1385145D01*
X537460Y1386799D01*
X537848Y1388750D01*
X537460Y1390701D01*
X536355Y1392355D01*
X534701Y1393460D01*
X532750Y1393848D01*
D02*
G37*
G36*
X445750Y1389598D02*
X443799Y1389210D01*
X442145Y1388105D01*
X441040Y1386451D01*
X440652Y1384500D01*
X441040Y1382549D01*
X442145Y1380895D01*
X443799Y1379790D01*
X445750Y1379402D01*
X447701Y1379790D01*
X449355Y1380895D01*
X450460Y1382549D01*
X450848Y1384500D01*
X450460Y1386451D01*
X449355Y1388105D01*
X447701Y1389210D01*
X445750Y1389598D01*
D02*
G37*
G36*
X496000Y1384098D02*
X494049Y1383710D01*
X492395Y1382605D01*
X491290Y1380951D01*
X490902Y1379000D01*
X491290Y1377049D01*
X492395Y1375395D01*
X494049Y1374290D01*
X496000Y1373902D01*
X497951Y1374290D01*
X499605Y1375395D01*
X500710Y1377049D01*
X501098Y1379000D01*
X500710Y1380951D01*
X499605Y1382605D01*
X497951Y1383710D01*
X496000Y1384098D01*
D02*
G37*
G36*
X589500Y1372098D02*
X587549Y1371710D01*
X585895Y1370605D01*
X584790Y1368951D01*
X584402Y1367000D01*
X584790Y1365049D01*
X585895Y1363395D01*
X587549Y1362290D01*
X589500Y1361902D01*
X591451Y1362290D01*
X593105Y1363395D01*
X594210Y1365049D01*
X594598Y1367000D01*
X594210Y1368951D01*
X593105Y1370605D01*
X591451Y1371710D01*
X589500Y1372098D01*
D02*
G37*
G36*
X570500D02*
X568549Y1371710D01*
X566895Y1370605D01*
X565790Y1368951D01*
X565402Y1367000D01*
X565790Y1365049D01*
X566895Y1363395D01*
X568549Y1362290D01*
X570500Y1361902D01*
X572451Y1362290D01*
X574105Y1363395D01*
X575210Y1365049D01*
X575598Y1367000D01*
X575210Y1368951D01*
X574105Y1370605D01*
X572451Y1371710D01*
X570500Y1372098D01*
D02*
G37*
G36*
X455000Y1360098D02*
X453049Y1359710D01*
X451395Y1358605D01*
X450290Y1356951D01*
X449902Y1355000D01*
X450290Y1353049D01*
X451395Y1351395D01*
X453049Y1350290D01*
X455000Y1349902D01*
X456951Y1350290D01*
X458605Y1351395D01*
X459710Y1353049D01*
X460098Y1355000D01*
X459710Y1356951D01*
X458605Y1358605D01*
X456951Y1359710D01*
X455000Y1360098D01*
D02*
G37*
G36*
X437000Y1355098D02*
X435049Y1354710D01*
X433395Y1353605D01*
X432290Y1351951D01*
X431902Y1350000D01*
X432290Y1348049D01*
X433395Y1346395D01*
X435049Y1345290D01*
X437000Y1344902D01*
X438951Y1345290D01*
X440605Y1346395D01*
X441710Y1348049D01*
X442098Y1350000D01*
X441710Y1351951D01*
X440605Y1353605D01*
X438951Y1354710D01*
X437000Y1355098D01*
D02*
G37*
G36*
X489750Y1353348D02*
X487799Y1352960D01*
X486145Y1351855D01*
X485040Y1350201D01*
X484652Y1348250D01*
X485040Y1346299D01*
X486145Y1344645D01*
X487799Y1343540D01*
X489750Y1343152D01*
X491701Y1343540D01*
X493355Y1344645D01*
X494460Y1346299D01*
X494848Y1348250D01*
X494460Y1350201D01*
X493355Y1351855D01*
X491701Y1352960D01*
X489750Y1353348D01*
D02*
G37*
G36*
X585500Y1332598D02*
X583549Y1332210D01*
X581895Y1331105D01*
X580790Y1329451D01*
X580402Y1327500D01*
X580790Y1325549D01*
X581895Y1323895D01*
X583549Y1322790D01*
X585500Y1322402D01*
X587451Y1322790D01*
X589105Y1323895D01*
X590210Y1325549D01*
X590598Y1327500D01*
X590210Y1329451D01*
X589105Y1331105D01*
X587451Y1332210D01*
X585500Y1332598D01*
D02*
G37*
%LPD*%
D34*
X418400Y1496200D02*
D03*
Y1318400D02*
D03*
Y1343800D02*
D03*
Y1369200D02*
D03*
Y1394600D02*
D03*
Y1420000D02*
D03*
Y1445400D02*
D03*
Y1470800D02*
D03*
Y1521600D02*
D03*
X621600Y1470800D02*
D03*
Y1445400D02*
D03*
Y1420000D02*
D03*
Y1394600D02*
D03*
Y1369200D02*
D03*
Y1343800D02*
D03*
Y1318400D02*
D03*
Y1496200D02*
D03*
Y1521600D02*
D03*
D35*
X525000Y1473500D02*
D03*
X509500D02*
D03*
X494000D02*
D03*
X525000Y1489000D02*
D03*
X509500D02*
D03*
X494000D02*
D03*
X525000Y1504500D02*
D03*
X509500D02*
D03*
X494000D02*
D03*
X467000Y1449000D02*
D03*
X494750Y1443750D02*
D03*
X433750Y1398250D02*
D03*
X445750Y1384500D02*
D03*
X459750Y1438000D02*
D03*
X481250Y1423750D02*
D03*
X478000Y1415000D02*
D03*
X453753Y1531261D02*
D03*
X492313Y1533000D02*
D03*
X465750Y1466500D02*
D03*
X444750Y1486000D02*
D03*
X477250Y1445750D02*
D03*
X465750Y1457000D02*
D03*
X475250Y1453500D02*
D03*
X468000Y1522500D02*
D03*
X475000Y1540000D02*
D03*
X490000Y1552000D02*
D03*
X490089Y1516500D02*
D03*
X445000Y1540000D02*
D03*
X451750Y1438000D02*
D03*
X532750Y1388750D02*
D03*
X496000Y1379000D02*
D03*
X514500Y1461500D02*
D03*
X610000Y1549000D02*
D03*
Y1566000D02*
D03*
Y1583000D02*
D03*
X520000Y1592000D02*
D03*
X505000D02*
D03*
Y1600000D02*
D03*
X520000D02*
D03*
X535000D02*
D03*
X550000D02*
D03*
X565000D02*
D03*
X580000D02*
D03*
X595000D02*
D03*
X610000D02*
D03*
X582500Y1550000D02*
D03*
X570000Y1560000D02*
D03*
X490000Y1600000D02*
D03*
Y1592000D02*
D03*
Y1564000D02*
D03*
X460000Y1540000D02*
D03*
X430000D02*
D03*
X596250Y1518750D02*
D03*
X553750Y1481500D02*
D03*
X584250Y1524500D02*
D03*
X552750Y1503500D02*
D03*
X553500Y1515500D02*
D03*
X545000Y1522750D02*
D03*
X537000Y1508750D02*
D03*
X542750Y1448000D02*
D03*
X569250Y1443750D02*
D03*
X602500Y1478750D02*
D03*
X585500Y1327500D02*
D03*
X575000Y1310000D02*
D03*
X535000Y1335001D02*
D03*
X444500Y1339000D02*
D03*
X482000Y1470000D02*
D03*
Y1478000D02*
D03*
X455000Y1355000D02*
D03*
X495500Y1398500D02*
D03*
X510000Y1418750D02*
D03*
X570500Y1367000D02*
D03*
X589500D02*
D03*
X561500Y1401000D02*
D03*
X489750Y1348250D02*
D03*
X600000Y1310000D02*
D03*
X435000D02*
D03*
X455000D02*
D03*
X603000Y1401000D02*
D03*
X552000Y1528750D02*
D03*
X509250Y1565250D02*
D03*
X524250Y1566500D02*
D03*
X524000Y1540000D02*
D03*
Y1550000D02*
D03*
X521000Y1578500D02*
D03*
X489504Y1541012D02*
D03*
X432000Y1471000D02*
D03*
X462000Y1411000D02*
D03*
X427000Y1382000D02*
D03*
X437000Y1350000D02*
D03*
X600000Y1344500D02*
D03*
D36*
X418400Y1318400D02*
X518399D01*
X535000Y1335001D01*
M02*
