M48
;Layer_Color=9474304
;FILE_FORMAT=4:3
METRIC
;TYPE=PLATED
T1F00S00C0.300
T2F00S00C0.900
%
T01
X0043500Y0131000
X0045500
X0044450Y0133900
X0043700Y0135000
X0045500Y0135500
X0044575Y0138450
X0042700Y0138200
X0043375Y0139825
X0046200Y0141100
X0047800Y0141500
X0048125Y0142375
X0047725Y0144575
X0047525Y0145350
X0046700Y0144900
X0046575Y0145700
Y0146650
X0048200Y0147000
Y0147800
X0049400Y0147350
X0050950
X0052500
Y0148900
X0050950
X0049400
Y0150450
X0050950
X0052500
X0053700Y0150875
X0055275Y0150350
X0055350Y0151550
X0055200Y0152875
X0054500Y0152275
X0052400Y0154000
Y0155000
X0052425Y0156650
X0052100Y0157850
X0050925Y0156525
X0049000Y0156400
Y0155200
X0048950Y0154101
X0049231Y0153300
X0049009Y0151650
X0046800Y0152250
X0045375Y0153126
X0046000Y0154000
X0044500
X0043000
X0047500
X0044475Y0148600
X0043200Y0147100
X0045175Y0143800
X0045975
X0049475Y0144375
X0051450Y0146150
X0054275Y0144800
X0056925Y0144375
X0056150Y0140100
X0053275Y0138875
X0049600Y0137900
X0049550Y0139850
X0051000Y0141875
X0048975Y0134825
X0053500Y0133500
X0058550Y0132750
X0057500Y0131000
X0060000Y0131000
Y0134450
X0058950Y0136700
X0057050
X0060300Y0140100
X0060250Y0147875
X0059625Y0151875
X0058425Y0152450
X0058250Y0155000
X0057000Y0156000
X0061000Y0156600
Y0154900
Y0158300
X0055375Y0148150
X0055000Y0160000
X0053500
X0052000
Y0159200
X0050500
Y0160000
X0049000
Y0159200
X0056500Y0160000
X0058000
X0059500
X0061000
T02
X0041840Y0131840
Y0134380
Y0136920
Y0139460
Y0142000
Y0144540
Y0147080
Y0149620
Y0152160
X0062160
Y0149620
Y0147080
Y0144540
Y0142000
Y0139460
Y0136920
Y0134380
Y0131840
M30
